<svg width="1276" height="340" viewBox="0 0 1276 340" fill="none" xmlns="http://www.w3.org/2000/svg">
<path fill-rule="evenodd" clip-rule="evenodd" d="M0 339.217H1276V0H0V339.217Z" fill="#F8D0C3"/>
<path d="M781.657 136.554C786.909 132.29 792.88 128.842 799.239 126.289C807.082 123.136 815.576 121.358 824.026 121.11C832.597 120.86 841.145 122.185 848.948 125.248C862.403 130.53 873.648 140.669 879.322 156.377C884.609 171.041 883.441 186.098 883.441 201.383V245.617H862.65V179.366C862.229 160.234 853.193 149.111 841.427 144.495C836.208 142.447 830.432 141.561 824.591 141.733C818.621 141.907 812.565 143.185 806.922 145.454C792.862 151.103 781.657 162.998 781.657 179.164V245.565H760.953V179.164V68.1445H781.657V136.554Z" fill="black"/>
<path d="M275.187 245.449V227.355L274.886 227.621C262.38 238.568 245.202 245.341 226.342 245.341C207.48 245.341 190.308 238.568 177.796 227.621C164.885 216.324 156.895 200.619 156.895 183.189C156.895 165.765 164.885 150.059 177.796 138.761C190.303 127.815 207.477 121.041 226.342 121.041C245.202 121.041 262.377 127.815 274.888 138.761L275.187 139.028V120.93H295.891V245.449H275.187ZM275.187 185.888V180.492C274.416 170.376 269.333 161.207 261.515 154.368C252.604 146.571 240.173 141.744 226.342 141.744C212.511 141.744 200.078 146.571 191.17 154.368C182.66 161.812 177.392 172.012 177.392 183.189C177.392 194.37 182.66 204.57 191.17 212.014C200.081 219.812 212.511 224.637 226.342 224.637C240.173 224.637 252.604 219.812 261.513 212.014C269.333 205.173 274.416 196.006 275.187 185.888Z" fill="black"/>
<path d="M319.535 298.35V120.93H340.239V141.506C341.191 140.563 342.175 139.649 343.189 138.761C355.701 127.815 372.872 121.041 391.736 121.041C410.598 121.041 427.774 127.815 440.281 138.761C453.192 150.059 461.183 165.765 461.183 183.189C461.183 200.619 453.192 216.324 440.281 227.621C427.769 238.568 410.596 245.341 391.736 245.341C372.872 245.341 355.698 238.568 343.192 227.621C342.175 226.732 341.191 225.817 340.239 224.874V298.35H319.535ZM426.908 154.368C418 146.571 405.569 141.744 391.736 141.744C377.907 141.744 365.474 146.571 356.562 154.368C348.055 161.809 342.786 172.012 342.786 183.189C342.786 194.37 348.055 204.57 356.565 212.014C365.474 219.812 377.907 224.637 391.736 224.637C405.566 224.637 417.996 219.812 426.908 212.014C435.418 204.57 440.686 194.37 440.686 183.189C440.686 172.012 435.418 161.812 426.908 154.368Z" fill="black"/>
<path d="M539.9 121.043C558.762 121.043 575.938 127.817 588.445 138.763C601.356 150.061 609.347 165.767 609.347 183.192C609.347 200.621 601.356 216.326 588.445 227.623C575.933 238.571 558.758 245.344 539.9 245.344C521.038 245.344 503.867 238.571 491.356 227.623C478.444 216.326 470.453 200.621 470.453 183.192C470.453 165.767 478.444 150.061 491.356 138.763C503.862 127.817 521.036 121.043 539.9 121.043ZM575.072 154.37C566.162 146.573 553.733 141.747 539.9 141.747C526.07 141.747 513.638 146.573 504.729 154.37C496.219 161.814 490.95 172.015 490.95 183.192C490.95 194.373 496.219 204.572 504.729 212.016C513.641 219.815 526.07 224.64 539.9 224.64C553.729 224.64 566.16 219.815 575.072 212.016C583.582 204.572 588.85 194.373 588.85 183.192C588.85 172.015 583.582 161.814 575.072 154.37Z" fill="black"/>
<path d="M118.582 245.565V68.1445H139.286V245.565H118.582Z" fill="black"/>
<path d="M687.875 245.344C668.97 245.344 651.757 238.554 639.225 227.585C626.315 216.291 618.324 200.597 618.324 183.192C618.324 165.79 626.315 150.097 639.225 138.801C651.757 127.833 668.97 121.043 687.875 121.043H688.285L688.494 121.047L688.695 121.049L689.106 121.054H689.113L689.512 121.059L689.73 121.066L689.923 121.071L690.331 121.082H690.348L690.738 121.098L691.146 121.115L691.553 121.13H691.575L691.962 121.153L692.187 121.163L692.366 121.174L692.77 121.198H692.798L693.176 121.226L693.985 121.285H694.015C704.945 122.147 715.184 125.287 724.114 130.164C725.785 131.075 727.408 132.052 728.98 133.085L729.156 133.199L729.304 133.3L729.627 133.515L729.642 133.523L729.95 133.732L730.126 133.851L730.271 133.952L730.589 134.171L730.607 134.183L730.906 134.392L731.086 134.517L731.222 134.617L731.537 134.843L731.559 134.857L731.85 135.068L732.029 135.199L732.162 135.296L732.472 135.528L732.496 135.545L732.778 135.759L732.958 135.895L733.086 135.992L733.39 136.226L733.419 136.248L733.694 136.463L733.877 136.607L733.995 136.699L734.297 136.938L734.328 136.966L734.596 137.18L734.779 137.33L734.892 137.422C741.1 142.516 746.28 148.626 750.099 155.448L732.064 165.475C729.52 160.923 726.024 156.822 721.791 153.355L721.609 153.205L721.582 153.183L721.369 153.014L721.299 152.958L721.158 152.846L720.986 152.71L720.946 152.678L720.732 152.512L720.674 152.465L720.516 152.345L720.356 152.223L720.3 152.18L720.082 152.018L720.035 151.985L719.861 151.854L719.715 151.748L719.642 151.694L719.422 151.534L719.391 151.511L719.199 151.377L719.063 151.281L718.75 151.06L718.734 151.05L718.071 150.597H718.069L717.843 150.444L717.735 150.374L717.056 149.937L716.917 149.846L716.71 149.719L716.683 149.7C715.889 149.205 715.078 148.737 714.246 148.281C707.496 144.594 699.591 142.291 691.048 141.831L690.934 141.824L690.63 141.81H690.6L690.327 141.796L690.149 141.791L690.024 141.784L689.717 141.774H689.695L689.413 141.766L689.242 141.763L689.106 141.761L688.798 141.756H688.788L688.491 141.749H688.331L688.185 141.747H687.875C674.086 141.747 661.691 146.559 652.809 154.332C644.297 161.779 639.028 171.99 639.028 183.192C639.028 194.397 644.297 204.607 652.809 212.055C661.691 219.829 674.086 224.64 687.875 224.64C697.93 224.64 707.228 222.089 714.958 217.701C722.748 213.278 728.97 206.987 732.738 199.597L751.175 208.977C745.575 219.958 736.471 229.227 725.146 235.654C714.355 241.782 701.546 245.344 687.875 245.344Z" fill="black"/>
<path d="M1136.72 245.449V227.355L1136.42 227.621C1123.9 238.568 1106.73 245.341 1087.87 245.341C1069.01 245.341 1051.84 238.568 1039.33 227.621C1026.42 216.324 1018.43 200.619 1018.43 183.189C1018.43 165.765 1026.42 150.059 1039.33 138.761C1051.83 127.815 1069.01 121.041 1087.87 121.041C1106.74 121.041 1123.91 127.815 1136.42 138.761L1136.72 139.028V120.93H1157.42V245.449H1136.72ZM1136.72 185.888V180.492C1135.95 170.376 1130.86 161.21 1123.04 154.368C1114.13 146.571 1101.7 141.744 1087.87 141.744C1074.04 141.744 1061.61 146.571 1052.7 154.368C1044.19 161.812 1038.92 172.012 1038.92 183.189C1038.92 194.37 1044.19 204.57 1052.7 212.014C1061.61 219.812 1074.04 224.637 1087.87 224.637C1101.7 224.637 1114.13 219.812 1123.04 212.014C1130.86 205.173 1135.95 196.006 1136.72 185.888Z" fill="black"/>
<path d="M966.12 181.43L1033.89 245.565H1003.93L948.676 193.274H924.118V245.565H903.414V68.1445H924.118V172.564H945.642L997.846 120.931H1027.29L966.12 181.43Z" fill="black"/>
</svg>
