<svg preserveAspectRatio="none" width="100%" height="100%" overflow="visible" style="display: block;" viewBox="0 0 355 134.744" fill="none" xmlns="http://www.w3.org/2000/svg">
<g id="Mask group">
<mask id="mask0_0_215" style="mask-type:alpha" maskUnits="userSpaceOnUse" x="5" y="-5" width="345" height="140">
<path id="&#208;&#157;&#208;&#176;&#208;&#185;&#208;&#180;&#208;&#184;&#226;&#128;&#168;lapochka" d="M89.0363 53V-0.200004H101.348V53H89.0363ZM52.5563 53V-0.200004H64.8683V53H52.5563ZM63.9563 31.188V20.776H89.9483V31.188H63.9563ZM136.717 53V45.02L135.957 43.272V28.984C135.957 26.4507 135.172 24.4747 133.601 23.056C132.081 21.6373 129.725 20.928 126.533 20.928C124.355 20.928 122.201 21.2827 120.073 21.992C117.996 22.6507 116.223 23.5627 114.753 24.728L110.497 16.444C112.727 14.8733 115.412 13.6573 118.553 12.796C121.695 11.9347 124.887 11.504 128.129 11.504C134.361 11.504 139.2 12.9733 142.645 15.912C146.091 18.8507 147.813 23.436 147.813 29.668V53H136.717ZM124.253 53.608C121.061 53.608 118.325 53.076 116.045 52.012C113.765 50.8973 112.017 49.4027 110.801 47.528C109.585 45.6533 108.977 43.5507 108.977 41.22C108.977 38.788 109.56 36.66 110.725 34.836C111.941 33.012 113.841 31.5933 116.425 30.58C119.009 29.516 122.379 28.984 126.533 28.984H137.401V35.9H127.825C125.039 35.9 123.113 36.356 122.049 37.268C121.036 38.18 120.529 39.32 120.529 40.688C120.529 42.208 121.112 43.424 122.277 44.336C123.493 45.1973 125.14 45.628 127.217 45.628C129.193 45.628 130.967 45.172 132.537 44.26C134.108 43.2973 135.248 41.904 135.957 40.08L137.781 45.552C136.92 48.1867 135.349 50.188 133.069 51.556C130.789 52.924 127.851 53.608 124.253 53.608ZM156.593 53V12.112H168.373V36.432L188.285 12.112H199.153V53H187.373V28.68L167.537 53H156.593ZM177.113 7.704C172.654 7.704 169.31 6.74133 167.081 4.816C164.851 2.84 163.711 -0.124003 163.661 -4.076H171.413C171.463 -2.35333 171.945 -0.985334 172.857 0.027998C173.769 1.04133 175.162 1.548 177.037 1.548C178.861 1.548 180.254 1.04133 181.217 0.027998C182.23 -0.985334 182.737 -2.35333 182.737 -4.076H190.641C190.641 -0.124003 189.501 2.84 187.221 4.816C184.941 6.74133 181.571 7.704 177.113 7.704ZM217.162 44.944L205.458 43.272C206.927 43.272 208.118 42.8413 209.03 41.98C209.942 41.068 210.651 39.8267 211.158 38.256C211.664 36.6347 212.044 34.8107 212.298 32.784C212.551 30.7067 212.728 28.528 212.83 26.248L213.362 12.112H249.006V47.68H237.15V21.84H223.774L223.546 27.084C223.444 29.2627 223.318 31.34 223.166 33.316C223.014 35.292 222.71 37.0907 222.254 38.712C221.848 40.2827 221.24 41.6253 220.43 42.74C219.619 43.804 218.53 44.5387 217.162 44.944ZM204.09 61.816V43.272H254.858V61.816H243.838V53H215.11V61.816H204.09ZM260.799 53V12.112H272.579V36.432L292.491 12.112H303.359V53H291.579V28.68L271.743 53H260.799ZM5.67677 120V63.608H17.5328V120H5.67677ZM52.0961 120V112.02L51.3361 110.272V95.984C51.3361 93.4507 50.5508 91.4747 48.9801 90.056C47.4601 88.6373 45.1041 87.928 41.9121 87.928C39.7335 87.928 37.5801 88.2827 35.4521 88.992C33.3748 89.6507 31.6015 90.5627 30.1321 91.728L25.8761 83.444C28.1055 81.8733 30.7908 80.6573 33.9321 79.796C37.0735 78.9347 40.2655 78.504 43.5081 78.504C49.7401 78.504 54.5788 79.9733 58.0241 82.912C61.4695 85.8507 63.1922 90.436 63.1922 96.668V120H52.0961ZM39.6321 120.608C36.4401 120.608 33.7041 120.076 31.4241 119.012C29.1441 117.897 27.3961 116.403 26.1801 114.528C24.9641 112.653 24.3561 110.551 24.3561 108.22C24.3561 105.788 24.9388 103.66 26.1041 101.836C27.3201 100.012 29.2201 98.5933 31.8041 97.58C34.3881 96.516 37.7575 95.984 41.9121 95.984H52.7801V102.9H43.2041C40.4175 102.9 38.4921 103.356 37.4281 104.268C36.4148 105.18 35.9081 106.32 35.9081 107.688C35.9081 109.208 36.4908 110.424 37.6561 111.336C38.8721 112.197 40.5188 112.628 42.5961 112.628C44.5721 112.628 46.3455 112.172 47.9161 111.26C49.4868 110.297 50.6268 108.904 51.3361 107.08L53.1601 112.552C52.2988 115.187 50.7281 117.188 48.4481 118.556C46.1681 119.924 43.2295 120.608 39.6321 120.608ZM96.5704 120.608C93.1251 120.608 90.1104 119.848 87.5264 118.328C84.9424 116.808 82.9157 114.503 81.4464 111.412C80.0277 108.271 79.3184 104.319 79.3184 99.556C79.3184 94.7427 80.0024 90.7907 81.3704 87.7C82.7384 84.6093 84.7144 82.304 87.2984 80.784C89.8824 79.264 92.9731 78.504 96.5704 78.504C100.421 78.504 103.866 79.3907 106.906 81.164C109.997 82.8867 112.429 85.3187 114.202 88.46C116.026 91.6013 116.938 95.3 116.938 99.556C116.938 103.863 116.026 107.587 114.202 110.728C112.429 113.869 109.997 116.301 106.906 118.024C103.866 119.747 100.421 120.608 96.5704 120.608ZM72.4024 134.744V79.112H83.7264V87.472L83.4984 99.632L84.2584 111.716V134.744H72.4024ZM94.5184 110.88C96.4944 110.88 98.2424 110.424 99.7624 109.512C101.333 108.6 102.574 107.308 103.486 105.636C104.449 103.913 104.93 101.887 104.93 99.556C104.93 97.1747 104.449 95.148 103.486 93.476C102.574 91.804 101.333 90.512 99.7624 89.6C98.2424 88.688 96.4944 88.232 94.5184 88.232C92.5424 88.232 90.7691 88.688 89.1984 89.6C87.6277 90.512 86.3864 91.804 85.4744 93.476C84.5624 95.148 84.1064 97.1747 84.1064 99.556C84.1064 101.887 84.5624 103.913 85.4744 105.636C86.3864 107.308 87.6277 108.6 89.1984 109.512C90.7691 110.424 92.5424 110.88 94.5184 110.88ZM142.811 120.608C138.454 120.608 134.578 119.696 131.183 117.872C127.839 116.048 125.179 113.565 123.203 110.424C121.278 107.232 120.315 103.609 120.315 99.556C120.315 95.452 121.278 91.8293 123.203 88.688C125.179 85.496 127.839 83.0133 131.183 81.24C134.578 79.416 138.454 78.504 142.811 78.504C147.118 78.504 150.968 79.416 154.363 81.24C157.758 83.0133 160.418 85.4707 162.343 88.612C164.268 91.7533 165.231 95.4013 165.231 99.556C165.231 103.609 164.268 107.232 162.343 110.424C160.418 113.565 157.758 116.048 154.363 117.872C150.968 119.696 147.118 120.608 142.811 120.608ZM142.811 110.88C144.787 110.88 146.56 110.424 148.131 109.512C149.702 108.6 150.943 107.308 151.855 105.636C152.767 103.913 153.223 101.887 153.223 99.556C153.223 97.1747 152.767 95.148 151.855 93.476C150.943 91.804 149.702 90.512 148.131 89.6C146.56 88.688 144.787 88.232 142.811 88.232C140.835 88.232 139.062 88.688 137.491 89.6C135.92 90.512 134.654 91.804 133.691 93.476C132.779 95.148 132.323 97.1747 132.323 99.556C132.323 101.887 132.779 103.913 133.691 105.636C134.654 107.308 135.92 108.6 137.491 109.512C139.062 110.424 140.835 110.88 142.811 110.88ZM191.396 120.608C186.988 120.608 183.061 119.721 179.616 117.948C176.171 116.124 173.46 113.616 171.484 110.424C169.559 107.232 168.596 103.609 168.596 99.556C168.596 95.452 169.559 91.8293 171.484 88.688C173.46 85.496 176.171 83.0133 179.616 81.24C183.061 79.416 186.988 78.504 191.396 78.504C195.703 78.504 199.452 79.416 202.644 81.24C205.836 83.0133 208.192 85.572 209.712 88.916L200.516 93.856C199.452 91.9307 198.109 90.512 196.488 89.6C194.917 88.688 193.195 88.232 191.32 88.232C189.293 88.232 187.469 88.688 185.848 89.6C184.227 90.512 182.935 91.804 181.972 93.476C181.06 95.148 180.604 97.1747 180.604 99.556C180.604 101.937 181.06 103.964 181.972 105.636C182.935 107.308 184.227 108.6 185.848 109.512C187.469 110.424 189.293 110.88 191.32 110.88C193.195 110.88 194.917 110.449 196.488 109.588C198.109 108.676 199.452 107.232 200.516 105.256L209.712 110.272C208.192 113.565 205.836 116.124 202.644 117.948C199.452 119.721 195.703 120.608 191.396 120.608ZM214.796 120V63.608H226.652V90.436L223.992 87.016C225.461 84.28 227.564 82.1773 230.3 80.708C233.036 79.2387 236.152 78.504 239.648 78.504C242.89 78.504 245.778 79.1627 248.312 80.48C250.896 81.7467 252.922 83.7227 254.392 86.408C255.861 89.0427 256.596 92.4373 256.596 96.592V120H244.74V98.416C244.74 95.1227 244.005 92.6907 242.536 91.12C241.117 89.5493 239.09 88.764 236.456 88.764C234.581 88.764 232.884 89.1693 231.364 89.98C229.894 90.74 228.729 91.9307 227.868 93.552C227.057 95.1733 226.652 97.2507 226.652 99.784V120H214.796ZM275.626 111.64L275.93 97.2L295.006 79.112H309.142L290.826 97.732L284.67 102.748L275.626 111.64ZM265.822 120V63.608H277.678V120H265.822ZM296.298 120L282.466 102.824L289.914 93.628L310.662 120H296.298ZM338.441 120V112.02L337.681 110.272V95.984C337.681 93.4507 336.896 91.4747 335.325 90.056C333.805 88.6373 331.449 87.928 328.257 87.928C326.078 87.928 323.925 88.2827 321.797 88.992C319.72 89.6507 317.946 90.5627 316.477 91.728L312.221 83.444C314.45 81.8733 317.136 80.6573 320.277 79.796C323.418 78.9347 326.61 78.504 329.853 78.504C336.085 78.504 340.924 79.9733 344.369 82.912C347.814 85.8507 349.537 90.436 349.537 96.668V120H338.441ZM325.977 120.608C322.785 120.608 320.049 120.076 317.769 119.012C315.489 117.897 313.741 116.403 312.525 114.528C311.309 112.653 310.701 110.551 310.701 108.22C310.701 105.788 311.284 103.66 312.449 101.836C313.665 100.012 315.565 98.5933 318.149 97.58C320.733 96.516 324.102 95.984 328.257 95.984H339.125V102.9H329.549C326.762 102.9 324.837 103.356 323.773 104.268C322.76 105.18 322.253 106.32 322.253 107.688C322.253 109.208 322.836 110.424 324.001 111.336C325.217 112.197 326.864 112.628 328.941 112.628C330.917 112.628 332.69 112.172 334.261 111.26C335.832 110.297 336.972 108.904 337.681 107.08L339.505 112.552C338.644 115.187 337.073 117.188 334.793 118.556C332.513 119.924 329.574 120.608 325.977 120.608Z" fill="white"/>
</mask>
<g mask="url(#mask0_0_215)">
<g id="Ellipse 3679" filter="url(#filter0_f_0_215)">
<ellipse cx="181" cy="186" rx="104" ry="82" fill="#6399CC" fill-opacity="0.41"/>
</g>
</g>
</g>
<defs>
<filter id="filter0_f_0_215" x="57" y="84" width="248" height="204" filterUnits="userSpaceOnUse" color-interpolation-filters="sRGB">
<feFlood flood-opacity="0" result="BackgroundImageFix"/>
<feBlend mode="normal" in="SourceGraphic" in2="BackgroundImageFix" result="shape"/>
<feGaussianBlur stdDeviation="10" result="effect1_foregroundBlur_0_215"/>
</filter>
</defs>
</svg>
