<svg xmlns="http://www.w3.org/2000/svg" width="18.798" height="19.749" viewBox="0 0 18.798 19.749" fill="none">
  <path d="M 1.062 5.669 C 2.488 2.245 5.83 0.01 9.539 0 C 13.538 -0.021 17.093 2.54 18.339 6.339 C 19.585 10.138 18.238 14.307 15.004 16.659 C 11.771 19.01 7.389 19.007 4.159 16.65 L 1.279 19.53 C 0.987 19.823 0.512 19.823 0.219 19.53 C -0.073 19.237 -0.073 18.763 0.219 18.47 L 3.009 15.68 C 0.403 13.04 -0.364 9.094 1.062 5.669 Z M 2.399 12.169 C 3.596 15.055 6.415 16.934 9.539 16.93 L 9.539 16.89 C 13.78 16.885 17.222 13.46 17.249 9.22 C 17.253 6.096 15.374 3.277 12.488 2.08 C 9.603 0.882 6.28 1.542 4.07 3.751 C 1.861 5.96 1.201 9.283 2.399 12.169 Z" fill="currentColor" fill-rule="evenodd"></path>
</svg>