<svg xmlns="http://www.w3.org/2000/svg" width="19.200" height="19.200" viewBox="0 0 19.200 19.200" fill="none">
  <path d="M 19.2 0 L 20.186 0.356 C 20.324 -0.026 20.228 -0.454 19.941 -0.741 C 19.654 -1.028 19.226 -1.124 18.844 -0.986 L 19.2 0 Z M 12.388 18.864 L 13.341 19.3 C 13.353 19.274 13.364 19.247 13.374 19.22 L 12.388 18.864 Z M 11.864 19.2 L 11.864 20.248 L 11.864 19.2 Z M 11.34 18.864 L 12.293 18.427 C 12.288 18.416 12.283 18.406 12.277 18.395 L 11.34 18.864 Z M 7.672 11.528 L 8.61 11.059 C 8.508 10.856 8.344 10.692 8.141 10.59 L 7.672 11.528 Z M 0.336 7.86 L 0.805 6.923 C 0.794 6.917 0.784 6.912 0.773 6.907 L 0.336 7.86 Z M 0 7.336 L 1.048 7.336 L 0 7.336 Z M 0.336 6.812 L -0.02 5.826 C -0.047 5.836 -0.074 5.847 -0.1 5.859 L 0.336 6.812 Z M 19.2 0 L 18.214 -0.356 L 11.402 18.508 L 12.388 18.864 L 13.374 19.22 L 20.186 0.356 L 19.2 0 Z M 12.388 18.864 L 11.435 18.427 C 11.473 18.345 11.533 18.275 11.609 18.227 L 12.175 19.109 L 12.741 19.991 C 13.003 19.823 13.211 19.583 13.341 19.3 L 12.388 18.864 Z M 12.175 19.109 L 11.609 18.227 C 11.685 18.178 11.774 18.152 11.864 18.152 L 11.864 19.2 L 11.864 20.248 C 12.175 20.248 12.48 20.159 12.741 19.991 L 12.175 19.109 Z M 11.864 19.2 L 11.864 18.152 C 11.954 18.152 12.043 18.178 12.119 18.227 L 11.553 19.109 L 10.987 19.991 C 11.249 20.159 11.553 20.248 11.864 20.248 L 11.864 19.2 Z M 11.553 19.109 L 12.119 18.227 C 12.195 18.275 12.255 18.345 12.293 18.427 L 11.34 18.864 L 10.387 19.3 C 10.517 19.583 10.725 19.823 10.987 19.991 L 11.553 19.109 Z M 11.34 18.864 L 12.277 18.395 L 8.61 11.059 L 7.672 11.528 L 6.735 11.997 L 10.403 19.332 L 11.34 18.864 Z M 7.672 11.528 L 8.141 10.59 L 0.805 6.923 L 0.336 7.86 L -0.132 8.797 L 7.203 12.465 L 7.672 11.528 Z M 0.336 7.86 L 0.773 6.907 C 0.855 6.945 0.925 7.005 0.973 7.081 L 0.091 7.647 L -0.791 8.213 C -0.623 8.475 -0.383 8.683 -0.1 8.813 L 0.336 7.86 Z M 0.091 7.647 L 0.973 7.081 C 1.022 7.157 1.048 7.246 1.048 7.336 L 0 7.336 L -1.048 7.336 C -1.048 7.647 -0.959 7.951 -0.791 8.213 L 0.091 7.647 Z M 0 7.336 L 1.048 7.336 C 1.048 7.426 1.022 7.515 0.973 7.591 L 0.091 7.025 L -0.791 6.459 C -0.959 6.72 -1.048 7.025 -1.048 7.336 L 0 7.336 Z M 0.091 7.025 L 0.973 7.591 C 0.925 7.667 0.855 7.727 0.773 7.765 L 0.336 6.812 L -0.1 5.859 C -0.383 5.989 -0.623 6.197 -0.791 6.459 L 0.091 7.025 Z M 0.336 6.812 L 0.692 7.798 L 19.556 0.986 L 19.2 0 L 18.844 -0.986 L -0.02 5.826 L 0.336 6.812 Z" fill="currentColor" fill-rule="nonzero"></path>
</svg>