<svg xmlns="http://www.w3.org/2000/svg" width="13.104" height="12.449" viewBox="0 0 13.104 12.449" fill="none">
  <path d="M 13.104 6.974 C 13.518 6.974 13.854 6.638 13.854 6.224 C 13.854 5.81 13.518 5.474 13.104 5.474 L 13.104 6.224 L 13.104 6.974 Z M 4.353 5.474 C 3.938 5.474 3.603 5.81 3.603 6.224 C 3.603 6.638 3.938 6.974 4.353 6.974 L 4.353 6.224 L 4.353 5.474 Z M 0 5.474 C -0.414 5.474 -0.75 5.81 -0.75 6.224 C -0.75 6.638 -0.414 6.974 0 6.974 L 0 6.224 L 0 5.474 Z M 13.104 11.654 C 13.518 11.654 13.854 11.318 13.854 10.904 C 13.854 10.49 13.518 10.154 13.104 10.154 L 13.104 10.904 L 13.104 11.654 Z M 0 10.154 C -0.414 10.154 -0.75 10.49 -0.75 10.904 C -0.75 11.318 -0.414 11.654 0 11.654 L 0 10.904 L 0 10.154 Z M 13.104 2.294 C 13.518 2.294 13.854 1.958 13.854 1.544 C 13.854 1.13 13.518 0.794 13.104 0.794 L 13.104 1.544 L 13.104 2.294 Z M 10.905 0.794 C 10.491 0.794 10.155 1.13 10.155 1.544 C 10.155 1.958 10.491 2.294 10.905 2.294 L 10.905 1.544 L 10.905 0.794 Z M 0 0.794 C -0.414 0.794 -0.75 1.13 -0.75 1.544 C -0.75 1.958 -0.414 2.294 0 2.294 L 0 1.544 L 0 0.794 Z M 9.36 3.088 L 9.36 3.838 L 9.36 3.088 Z M 10.904 1.544 L 11.654 1.544 L 10.904 1.544 Z M 4.352 6.224 L 5.102 6.224 L 4.352 6.224 Z M 7.488 12.449 L 7.488 13.199 L 7.488 12.449 Z M 7.488 9.36 L 7.488 8.61 L 7.488 9.36 Z M 13.104 6.224 L 13.104 5.474 L 4.353 5.474 L 4.353 6.224 L 4.353 6.974 L 13.104 6.974 L 13.104 6.224 Z M 1.264 6.224 L 1.264 5.474 L 0 5.474 L 0 6.224 L 0 6.974 L 1.264 6.974 L 1.264 6.224 Z M 13.104 10.904 L 13.104 10.154 L 9.033 10.154 L 9.033 10.904 L 9.033 11.654 L 13.104 11.654 L 13.104 10.904 Z M 5.944 10.904 L 5.944 10.154 L 0 10.154 L 0 10.904 L 0 11.654 L 5.944 11.654 L 5.944 10.904 Z M 13.104 1.544 L 13.104 0.794 L 10.905 0.794 L 10.905 1.544 L 10.905 2.294 L 13.104 2.294 L 13.104 1.544 Z M 7.816 1.544 L 7.816 0.794 L 0 0.794 L 0 1.544 L 0 2.294 L 7.816 2.294 L 7.816 1.544 Z M 9.36 3.088 L 9.36 3.838 C 9.661 3.838 9.96 3.779 10.238 3.664 L 9.951 2.971 L 9.664 2.278 C 9.567 2.318 9.464 2.338 9.36 2.338 L 9.36 3.088 Z M 9.951 2.971 L 10.238 3.664 C 10.516 3.548 10.769 3.379 10.982 3.166 L 10.452 2.636 L 9.921 2.106 C 9.848 2.179 9.76 2.238 9.664 2.278 L 9.951 2.971 Z M 10.452 2.636 L 10.982 3.166 C 11.195 2.953 11.364 2.7 11.479 2.422 L 10.787 2.135 L 10.094 1.848 C 10.054 1.944 9.995 2.032 9.921 2.106 L 10.452 2.636 Z M 10.787 2.135 L 11.479 2.422 C 11.595 2.144 11.654 1.845 11.654 1.544 L 10.904 1.544 L 10.154 1.544 C 10.154 1.648 10.134 1.752 10.094 1.848 L 10.787 2.135 Z M 10.904 1.544 L 11.654 1.544 C 11.654 1.243 11.595 0.945 11.479 0.666 L 10.787 0.953 L 10.094 1.24 C 10.134 1.337 10.154 1.44 10.154 1.544 L 10.904 1.544 Z M 10.787 0.953 L 11.479 0.666 C 11.364 0.388 11.195 0.135 10.982 -0.078 L 10.452 0.452 L 9.921 0.983 C 9.995 1.056 10.054 1.144 10.094 1.24 L 10.787 0.953 Z M 10.452 0.452 L 10.982 -0.078 C 10.769 -0.291 10.516 -0.46 10.238 -0.575 L 9.951 0.118 L 9.664 0.81 C 9.76 0.85 9.848 0.909 9.921 0.983 L 10.452 0.452 Z M 9.951 0.118 L 10.238 -0.575 C 9.96 -0.691 9.661 -0.75 9.36 -0.75 L 9.36 0 L 9.36 0.75 C 9.464 0.75 9.567 0.771 9.664 0.81 L 9.951 0.118 Z M 9.36 0 L 9.36 -0.75 C 8.751 -0.75 8.168 -0.508 7.738 -0.078 L 8.268 0.452 L 8.798 0.983 C 8.947 0.834 9.149 0.75 9.36 0.75 L 9.36 0 Z M 8.268 0.452 L 7.738 -0.078 C 7.307 0.352 7.066 0.936 7.066 1.544 L 7.816 1.544 L 8.566 1.544 C 8.566 1.334 8.649 1.132 8.798 0.983 L 8.268 0.452 Z M 7.816 1.544 L 7.066 1.544 C 7.066 2.153 7.307 2.736 7.738 3.166 L 8.268 2.636 L 8.798 2.106 C 8.649 1.957 8.566 1.755 8.566 1.544 L 7.816 1.544 Z M 8.268 2.636 L 7.738 3.166 C 8.168 3.597 8.751 3.838 9.36 3.838 L 9.36 3.088 L 9.36 2.338 C 9.149 2.338 8.947 2.255 8.798 2.106 L 8.268 2.636 Z M 2.808 7.768 L 2.808 8.518 C 3.416 8.518 4 8.277 4.43 7.846 L 3.9 7.316 L 3.369 6.786 C 3.22 6.935 3.018 7.018 2.808 7.018 L 2.808 7.768 Z M 3.9 7.316 L 4.43 7.846 C 4.86 7.416 5.102 6.833 5.102 6.224 L 4.352 6.224 L 3.602 6.224 C 3.602 6.435 3.518 6.637 3.369 6.786 L 3.9 7.316 Z M 4.352 6.224 L 5.102 6.224 C 5.102 5.616 4.86 5.032 4.43 4.602 L 3.9 5.132 L 3.369 5.663 C 3.518 5.811 3.602 6.013 3.602 6.224 L 4.352 6.224 Z M 3.9 5.132 L 4.43 4.602 C 4 4.172 3.416 3.93 2.808 3.93 L 2.808 4.68 L 2.808 5.43 C 3.018 5.43 3.22 5.514 3.369 5.663 L 3.9 5.132 Z M 2.808 4.68 L 2.808 3.93 C 2.199 3.93 1.616 4.172 1.186 4.602 L 1.716 5.132 L 2.246 5.663 C 2.395 5.514 2.597 5.43 2.808 5.43 L 2.808 4.68 Z M 1.716 5.132 L 1.186 4.602 C 0.755 5.032 0.514 5.616 0.514 6.224 L 1.264 6.224 L 2.014 6.224 C 2.014 6.013 2.097 5.811 2.246 5.663 L 1.716 5.132 Z M 1.264 6.224 L 0.514 6.224 C 0.514 6.833 0.755 7.416 1.186 7.846 L 1.716 7.316 L 2.246 6.786 C 2.097 6.637 2.014 6.435 2.014 6.224 L 1.264 6.224 Z M 1.716 7.316 L 1.186 7.846 C 1.616 8.277 2.199 8.518 2.808 8.518 L 2.808 7.768 L 2.808 7.018 C 2.597 7.018 2.395 6.935 2.246 6.786 L 1.716 7.316 Z M 7.488 12.449 L 7.488 13.199 C 8.096 13.199 8.68 12.957 9.11 12.527 L 8.58 11.997 L 8.05 11.466 C 7.901 11.615 7.699 11.699 7.488 11.699 L 7.488 12.449 Z M 8.58 11.997 L 9.11 12.527 C 9.54 12.097 9.783 11.513 9.783 10.904 L 9.033 10.904 L 8.283 10.904 C 8.283 11.115 8.199 11.317 8.05 11.466 L 8.58 11.997 Z M 9.033 10.904 L 9.783 10.904 C 9.783 10.295 9.54 9.712 9.11 9.282 L 8.58 9.812 L 8.05 10.343 C 8.199 10.492 8.283 10.694 8.283 10.904 L 9.033 10.904 Z M 8.58 9.812 L 9.11 9.282 C 8.68 8.852 8.096 8.61 7.488 8.61 L 7.488 9.36 L 7.488 10.11 C 7.699 10.11 7.901 10.194 8.05 10.343 L 8.58 9.812 Z M 7.488 9.36 L 7.488 8.61 C 6.879 8.61 6.296 8.852 5.866 9.282 L 6.396 9.812 L 6.926 10.343 C 7.075 10.194 7.277 10.11 7.488 10.11 L 7.488 9.36 Z M 6.396 9.812 L 5.866 9.282 C 5.435 9.712 5.194 10.296 5.194 10.904 L 5.944 10.904 L 6.694 10.904 C 6.694 10.693 6.777 10.491 6.926 10.343 L 6.396 9.812 Z M 5.944 10.904 L 5.194 10.904 C 5.194 11.513 5.435 12.096 5.866 12.526 L 6.396 11.996 L 6.926 11.466 C 6.777 11.317 6.694 11.115 6.694 10.904 L 5.944 10.904 Z M 6.396 11.996 L 5.866 12.526 C 6.295 12.956 6.878 13.199 7.488 13.199 L 7.488 12.449 L 7.488 11.699 C 7.278 11.699 7.076 11.615 6.926 11.466 L 6.396 11.996 Z" fill="currentColor" fill-rule="nonzero"></path>
</svg>