<svg preserveAspectRatio="none" width="100%" height="100%" overflow="visible" style="display: block;" viewBox="0 0 131 32" fill="none" xmlns="http://www.w3.org/2000/svg">
<g id="_2930914618368">
<path id="Vector" fill-rule="evenodd" clip-rule="evenodd" d="M0 16C0 24.8366 7.16344 32 16 32H115C123.837 32 131 24.8366 131 16C131 7.16344 123.837 0 115 0H16C7.16345 0 0 7.16344 0 16Z" fill="#413F40" fill-opacity="0.4"/>
<g id="Group">
<path id="Vector_2" d="M79.0517 12.8818C79.5472 12.4796 80.1105 12.1543 80.7103 11.9134C81.4502 11.6161 82.2515 11.4483 83.0486 11.4249C83.8572 11.4013 84.6635 11.5264 85.3997 11.8153C86.6689 12.3136 87.7297 13.27 88.265 14.7518C88.7637 16.1351 88.6535 17.5556 88.6535 18.9975V23.1702H86.6922V16.9205C86.6525 15.1157 85.8001 14.0664 84.6902 13.631C84.1978 13.4377 83.6529 13.3542 83.1019 13.3704C82.5387 13.3868 81.9674 13.5074 81.4351 13.7214C80.1087 14.2543 79.0517 15.3764 79.0517 16.9014V23.1654H77.0986V16.9014V6.42843H79.0517V12.8818Z" fill="white"/>
<path id="Vector_3" d="M31.274 23.1546V21.4477L31.2456 21.4728C30.0659 22.5055 28.4454 23.1444 26.6662 23.1444C24.8869 23.1444 23.267 22.5055 22.0866 21.4728C20.8687 20.4071 20.1149 18.9256 20.1149 17.2814C20.1149 15.6376 20.8687 14.156 22.0866 13.0902C23.2665 12.0576 24.8866 11.4185 26.6662 11.4185C28.4454 11.4185 30.0656 12.0576 31.2459 13.0902L31.274 13.1154V11.4081H33.2271V23.1546H31.274ZM31.274 17.5359V17.0269C31.2013 16.0726 30.7218 15.2076 29.9843 14.5624C29.1436 13.8269 27.971 13.3716 26.6662 13.3716C25.3615 13.3716 24.1886 13.8269 23.3483 14.5624C22.5455 15.2647 22.0485 16.227 22.0485 17.2814C22.0485 18.3361 22.5455 19.2983 23.3483 20.0005C24.1889 20.7362 25.3615 21.1913 26.6662 21.1913C27.971 21.1913 29.1436 20.7362 29.9841 20.0005C30.7218 19.3552 31.2013 18.4904 31.274 17.5359Z" fill="white"/>
<path id="Vector_4" d="M35.4574 28.145V11.4081H37.4105V13.3492C37.5003 13.2602 37.5931 13.174 37.6888 13.0902C38.869 12.0576 40.4889 11.4185 42.2684 11.4185C44.0478 11.4185 45.6681 12.0576 46.8479 13.0902C48.0659 14.156 48.8197 15.6376 48.8197 17.2814C48.8197 18.9256 48.0659 20.4071 46.8479 21.4728C45.6676 22.5055 44.0475 23.1444 42.2684 23.1444C40.4889 23.1444 38.8688 22.5055 37.689 21.4728C37.5931 21.389 37.5003 21.3026 37.4105 21.2137V28.145H35.4574ZM45.5863 14.5624C44.746 13.8269 43.5734 13.3716 42.2684 13.3716C40.9639 13.3716 39.791 13.8269 38.9503 14.5624C38.1478 15.2645 37.6508 16.227 37.6508 17.2814C37.6508 18.3361 38.1478 19.2983 38.9506 20.0005C39.791 20.7362 40.9639 21.1913 42.2684 21.1913C43.5731 21.1913 44.7456 20.7362 45.5863 20.0005C46.3891 19.2983 46.8861 18.3361 46.8861 17.2814C46.8861 16.227 46.3891 15.2647 45.5863 14.5624Z" fill="white"/>
<path id="Vector_5" d="M56.2456 11.4185C58.025 11.4185 59.6453 12.0575 60.8251 13.0902C62.0431 14.156 62.7969 15.6376 62.7969 17.2813C62.7969 18.9255 62.0431 20.407 60.8251 21.4727C59.6448 22.5055 58.0246 23.1444 56.2456 23.1444C54.4663 23.1444 52.8464 22.5055 51.6662 21.4727C50.4482 20.407 49.6943 18.9255 49.6943 17.2813C49.6943 15.6376 50.4482 14.156 51.6662 13.0902C52.846 12.0575 54.4661 11.4185 56.2456 11.4185ZM59.5635 14.5624C58.723 13.8269 57.5505 13.3716 56.2456 13.3716C54.941 13.3716 53.7682 13.8269 52.9277 14.5624C52.1249 15.2647 51.6279 16.2269 51.6279 17.2813C51.6279 18.3361 52.1249 19.2982 52.9277 20.0005C53.7684 20.7361 54.941 21.1913 56.2456 21.1913C57.5502 21.1913 58.7228 20.7361 59.5635 20.0005C60.3663 19.2982 60.8633 18.3361 60.8633 17.2813C60.8633 16.2269 60.3663 15.2647 59.5635 14.5624Z" fill="white"/>
<path id="Vector_6" d="M16.5002 23.1653V6.42839H18.4532V23.1653H16.5002Z" fill="white"/>
<path id="Vector_7" d="M70.2046 23.1444C68.4212 23.1444 66.7974 22.5039 65.6152 21.4692C64.3974 20.4037 63.6436 18.9233 63.6436 17.2813C63.6436 15.6397 64.3974 14.1593 65.6152 13.0937C66.7974 12.0591 68.4212 11.4185 70.2046 11.4185H70.2433L70.2631 11.4188L70.282 11.4191L70.3207 11.4196H70.3214L70.3591 11.42L70.3797 11.4206L70.3978 11.4211L70.4363 11.4222H70.4379L70.4747 11.4237L70.5132 11.4253L70.5516 11.4267H70.5536L70.5901 11.4288L70.6114 11.4298L70.6283 11.4309L70.6664 11.4331H70.669L70.7047 11.4357L70.781 11.4413H70.7838C71.8149 11.5226 72.7808 11.8189 73.6233 12.2789C73.7809 12.3648 73.9339 12.4571 74.0822 12.5545L74.0989 12.5652L74.1128 12.5747L74.1433 12.5951L74.1448 12.5958L74.1738 12.6155L74.1904 12.6268L74.2041 12.6363L74.234 12.657L74.2358 12.658L74.264 12.6778L74.2809 12.6895L74.2938 12.699L74.3235 12.7203L74.3255 12.7216L74.353 12.7416L74.3699 12.754L74.3824 12.7631L74.4117 12.785L74.4139 12.7865L74.4406 12.8067L74.4576 12.8195L74.4696 12.8287L74.4983 12.8508L74.5011 12.8528L74.527 12.8731L74.5442 12.8867L74.5554 12.8954L74.5839 12.918L74.5867 12.9206L74.6121 12.9408L74.6293 12.9549L74.64 12.9636C75.2256 13.4442 75.7142 14.0206 76.0745 14.6641L74.3732 15.61C74.1332 15.1806 73.8034 14.7937 73.4041 14.4666L73.3869 14.4525L73.3844 14.4505L73.3643 14.4345L73.3577 14.4292L73.3443 14.4186L73.3282 14.4058L73.3244 14.4028L73.3042 14.3871L73.2987 14.3827L73.2839 14.3714L73.2688 14.3599L73.2634 14.3559L73.2428 14.3405L73.2385 14.3374L73.2221 14.3251L73.2083 14.3151L73.2014 14.31L73.1806 14.2949L73.1777 14.2927L73.1595 14.28L73.1467 14.271L73.1172 14.2502L73.1157 14.2492L73.0532 14.2065H73.0529L73.0317 14.1921L73.0214 14.1854L72.9574 14.1442L72.9443 14.1356L72.9248 14.1236L72.9222 14.1218C72.8473 14.0751 72.7708 14.031 72.6924 13.988C72.0556 13.6402 71.3098 13.4229 70.504 13.3795L70.4931 13.3788L70.4645 13.3775H70.4617L70.436 13.3762L70.4191 13.3757L70.4073 13.3751L70.3783 13.3742H70.3763L70.3497 13.3734L70.3335 13.3731L70.3207 13.3729L70.2917 13.3724H70.2908L70.2627 13.3718H70.2476L70.2338 13.3716H70.2046C68.9038 13.3716 67.7345 13.8256 66.8967 14.5588C66.0937 15.2613 65.5967 16.2246 65.5967 17.2813C65.5967 18.3383 66.0937 19.3016 66.8967 20.0042C67.7345 20.7374 68.9038 21.1913 70.2046 21.1913C71.1532 21.1913 72.0303 20.9506 72.7595 20.5367C73.4943 20.1194 74.0813 19.5261 74.4368 18.8289L76.176 19.7137C75.6478 20.7497 74.7889 21.624 73.7206 22.2304C72.7026 22.8084 71.4943 23.1444 70.2046 23.1444Z" fill="white"/>
<path id="Vector_8" d="M112.546 23.1546V21.4477L112.518 21.4728C111.337 22.5055 109.718 23.1444 107.938 23.1444C106.159 23.1444 104.539 22.5055 103.359 21.4728C102.141 20.4071 101.387 18.9256 101.387 17.2814C101.387 15.6376 102.141 14.156 103.359 13.0902C104.539 12.0576 106.159 11.4185 107.938 11.4185C109.718 11.4185 111.338 12.0576 112.518 13.0902L112.546 13.1154V11.4081H114.499V23.1546H112.546ZM112.546 17.5359V17.0269C112.473 16.0726 111.994 15.2079 111.256 14.5624C110.416 13.8269 109.243 13.3716 107.938 13.3716C106.633 13.3716 105.461 13.8269 104.62 14.5624C103.818 15.2647 103.321 16.227 103.321 17.2814C103.321 18.3361 103.818 19.2983 104.62 20.0005C105.461 20.7362 106.634 21.1913 107.938 21.1913C109.243 21.1913 110.416 20.7362 111.256 20.0005C111.994 19.3552 112.473 18.4904 112.546 17.5359Z" fill="white"/>
<path id="Vector_9" d="M96.4528 17.1153L102.846 23.1654H100.02L94.8073 18.2325H92.4905V23.1654H90.5374V6.42843H92.4905V16.2788H94.521L99.4456 11.408H102.223L96.4528 17.1153Z" fill="white"/>
</g>
</g>
</svg>
