<svg xmlns="http://www.w3.org/2000/svg" width="60.606" height="63.796" viewBox="0 0 60.606 63.796" fill="none">
  <path d="M 23.666 60.628 C 20.188 59.509 16.909 57.85 13.95 55.713 C 13.584 55.451 12.623 54.802 12.325 54.526 C 11.043 53.403 9.905 52.19 8.776 50.928 C 7.318 49.422 6.332 47.724 5.292 45.933 C 3.144 42.236 1.563 37.922 0.879 33.707 C 0.593 31.942 0.274 29.863 0.136 28.085 C -0.009 26.223 0.006 24.146 0 22.263 C -0.002 19.836 0.053 17.408 0.165 14.983 C 0.287 12.774 0.503 10.529 0.63 8.315 C 0.824 7.046 0.929 5.234 1.172 4.025 C 1.469 2.548 1.059 -1.621 3.581 0.677 C 4.019 1.077 5.014 1.402 5.262 1.94 C 5.651 2.277 5.828 2.407 5.983 2.912 C 7.03 2.915 8.729 4.078 9.716 4.597 C 12.121 5.86 14.589 7.177 16.79 8.776 C 17.444 9.251 18.167 9.646 18.841 10.092 C 21.808 12.357 25.428 13.598 28.611 15.533 C 29.628 16.151 30.416 17.171 31.509 17.707 C 33.229 18.587 34.933 19.182 36.64 20.107 C 37.517 20.572 38.372 21.075 39.204 21.616 C 40.516 22.464 41.665 23.248 43.131 23.814 C 44.657 24.403 46.114 25.177 47.538 25.971 C 48.55 26.526 49.701 26.947 50.648 27.649 C 52.465 28.929 54.333 30.118 56.039 31.544 C 56.616 32.026 57.221 32.369 57.799 32.895 C 58.163 33.174 58.576 33.537 58.677 34.007 C 59.071 33.957 59.125 34.093 59.477 34.35 C 59.773 34.567 60.298 35.042 60.47 35.362 C 60.699 36.86 60.573 37.943 60.56 39.422 C 60.515 44.432 59.884 48.899 57.824 53.529 C 57.225 54.875 57.139 55.403 56.236 56.627 C 53.427 60.355 49.254 62.828 44.625 63.508 C 42.06 63.897 40.701 63.851 38.138 63.614 C 34.562 63.263 31.016 62.654 27.527 61.793 C 26.709 61.595 24.419 60.978 23.666 60.628 Z" fill="currentColor" fill-rule="nonzero"></path>
  <path d="M 23.666 60.628 C 20.188 59.509 16.909 57.85 13.95 55.713 C 13.584 55.451 12.623 54.802 12.325 54.526 C 11.043 53.403 9.905 52.19 8.776 50.928 C 7.318 49.422 6.332 47.724 5.292 45.933 C 3.144 42.236 1.563 37.922 0.879 33.707 C 0.593 31.942 0.274 29.863 0.136 28.085 C -0.009 26.223 0.006 24.146 0 22.263 C -0.002 19.836 0.053 17.408 0.165 14.983 C 0.287 12.774 0.503 10.529 0.63 8.315 C 0.824 7.046 0.929 5.234 1.172 4.025 C 1.469 2.548 1.059 -1.621 3.581 0.677 C 4.019 1.077 5.014 1.402 5.262 1.94 C 5.651 2.277 5.828 2.407 5.983 2.912 C 5.79 3.323 5.394 4.128 5.313 4.564 C 4.927 6.632 4.533 8.689 4.337 10.788 C 3.56 19.112 3.436 27.633 6.328 35.586 C 8.197 40.774 11.494 45.332 15.842 48.741 C 16.437 49.214 17.336 49.816 17.968 50.263 C 18.798 50.85 20.425 52.232 21.337 52.575 C 22.453 52.996 24.156 53.786 25.257 54.106 C 29.157 55.24 33.813 55.729 37.721 54.418 C 38.414 54.185 39.584 53.504 40.265 53.149 C 41.003 52.765 42.017 52.248 42.7 51.789 C 44.951 50.275 46.999 48.492 48.799 46.467 C 49.36 45.837 50.015 44.901 50.539 44.228 C 52.141 42.14 53.625 39.965 54.985 37.713 C 55.583 36.702 56.07 35.637 56.57 34.576 C 56.826 34.033 57.229 33.161 57.799 32.895 C 58.163 33.174 58.576 33.537 58.677 34.007 C 59.071 33.957 59.125 34.093 59.477 34.35 C 59.773 34.567 60.298 35.042 60.47 35.362 C 60.699 36.86 60.573 37.943 60.56 39.422 C 60.515 44.432 59.884 48.899 57.824 53.529 C 57.225 54.875 57.139 55.403 56.236 56.627 C 53.427 60.355 49.254 62.828 44.625 63.508 C 42.06 63.897 40.701 63.851 38.138 63.614 C 34.562 63.263 31.016 62.654 27.527 61.793 C 26.709 61.595 24.419 60.978 23.666 60.628 Z" fill="currentColor" fill-rule="nonzero"></path>
  <path d="M 5.262 1.94 C 5.651 2.277 5.828 2.407 5.983 2.912 C 5.79 3.323 5.394 4.128 5.313 4.564 C 4.927 6.632 4.533 8.689 4.337 10.788 C 3.56 19.112 3.436 27.633 6.328 35.586 C 8.197 40.774 11.494 45.332 15.842 48.741 C 16.437 49.214 17.336 49.816 17.968 50.263 C 18.798 50.85 20.425 52.232 21.337 52.575 C 22.453 52.996 24.156 53.786 25.257 54.106 C 29.157 55.24 33.813 55.729 37.721 54.418 C 38.414 54.185 39.584 53.504 40.265 53.149 C 41.003 52.765 42.017 52.248 42.7 51.789 C 44.951 50.275 46.999 48.492 48.799 46.467 C 49.36 45.837 50.015 44.901 50.539 44.228 C 52.141 42.14 53.625 39.965 54.985 37.713 C 55.583 36.702 56.07 35.637 56.57 34.576 C 56.826 34.033 57.229 33.161 57.799 32.895 C 58.163 33.174 58.576 33.537 58.677 34.007 C 58.592 34.221 58.559 34.484 58.483 34.708 C 58.178 35.614 57.879 36.526 57.562 37.428 C 56.848 39.466 55.808 41.393 54.785 43.289 C 52.272 47.949 51.331 49.903 46.796 53.036 C 45.736 53.767 44.671 54.523 43.505 55.08 C 41.854 55.87 40.064 56.302 38.295 56.74 C 34.345 57.716 31.328 58.35 27.226 57.709 C 26.107 57.534 24.985 57.294 23.915 56.919 C 20.201 55.616 17.143 53.204 14.299 50.56 C 12.816 49.181 11.396 47.739 10.152 46.136 C 8.818 44.416 7.489 42.223 6.546 40.256 C 5.763 38.621 4.92 36.911 4.413 35.168 C 3.598 32.366 3.325 30.024 3.054 27.15 C 2.661 22.985 2.513 18.838 2.812 14.659 C 2.891 13.562 3.045 12.468 3.164 11.375 C 3.333 9.817 3.484 8.288 3.808 6.75 C 4.154 5.103 4.7 3.524 5.262 1.94 Z" fill="currentColor" fill-rule="nonzero"></path>
  <path d="M 60.47 35.362 C 60.699 36.86 60.573 37.943 60.56 39.422 C 60.515 44.432 59.884 48.899 57.824 53.529 C 57.225 54.875 57.139 55.403 56.236 56.627 C 53.427 60.355 49.254 62.828 44.625 63.508 C 42.06 63.897 40.701 63.851 38.138 63.614 C 34.562 63.263 31.016 62.654 27.527 61.793 C 26.709 61.595 24.419 60.978 23.666 60.628 C 24.337 60.462 26.371 60.955 27.169 61 C 28.892 61.096 30.838 61.224 32.558 61.068 C 35.97 60.758 39.443 60.066 42.733 59.115 C 43.791 58.809 44.821 58.406 45.813 57.938 C 47.941 56.575 49.951 54.925 51.78 53.178 C 52.787 52.216 53.659 50.661 54.632 49.619 C 54.863 49.314 55.166 48.95 55.343 48.615 C 56.106 47.171 56.756 45.68 57.486 44.214 C 58.869 41.438 59.492 38.328 60.444 35.407 C 60.453 35.392 60.461 35.377 60.47 35.362 Z" fill="currentColor" fill-rule="nonzero"></path>
  <path d="M 52.005 55.339 C 52.152 55.126 52.252 55.058 52.262 54.833 L 52.118 54.653 C 52.15 54.455 53.243 53.108 53.421 53.003 C 54.28 52.497 56.049 48.654 56.497 48.388 L 56.568 48.427 C 56.544 48.72 56.174 49.066 56.043 49.329 C 55.551 50.32 55.008 51.223 54.376 52.139 C 54.156 52.457 53.712 53.012 53.485 53.353 C 53.462 53.388 53.532 53.554 53.557 53.605 C 53.404 54.111 52.507 55.173 52.088 55.527 L 52.005 55.339 Z" fill="currentColor" fill-rule="nonzero"></path>
  <path d="M 58.906 43.411 C 59.112 42.599 59.139 41.768 59.495 41.022 L 59.555 41.048 C 59.538 41.438 59.219 43.017 59.103 43.443 L 59.128 43.539 C 59.303 43.669 59.35 43.481 59.557 43.575 C 59.568 43.719 59.311 44.029 59.213 44.283 C 58.928 45.021 58.93 46.196 58.551 46.81 L 58.509 46.761 C 58.538 45.556 58.758 44.578 58.906 43.411 Z" fill="currentColor" fill-rule="nonzero"></path>
  <path d="M 44.437 60.924 L 44.48 60.997 L 44.423 61.107 C 42.818 61.855 39.406 62.68 37.657 62.718 L 37.608 62.653 C 37.67 62.546 38.51 62.514 38.729 62.48 C 40.382 62.23 42.948 61.645 44.437 60.924 Z" fill="currentColor" fill-rule="nonzero"></path>
  <path d="M 58.299 49.14 C 58.772 49.612 56.813 53.727 56.488 54.293 L 56.432 54.245 C 56.39 54.085 56.498 53.952 56.57 53.794 C 57.015 52.815 57.494 51.86 57.831 50.836 C 58.008 50.3 58.096 49.729 58.28 49.195 L 58.299 49.14 Z" fill="currentColor" fill-rule="nonzero"></path>
  <path d="M 58.133 47.941 C 58.227 47.996 58.2 47.982 58.262 48.087 C 58.067 49.092 57.2 51.931 56.673 52.701 L 56.607 52.684 C 56.557 52.542 57.056 51.416 57.16 51.165 C 57.598 50.107 57.785 49.021 58.133 47.941 Z" fill="currentColor" fill-rule="nonzero"></path>
  <path d="M 52.005 55.339 L 52.088 55.527 C 51.515 56.031 49.935 57.645 49.522 57.89 C 49.531 57.466 51.565 55.774 52.005 55.339 Z" fill="currentColor" fill-rule="nonzero"></path>
  <path d="M 48.813 58.584 L 48.86 58.702 C 48.767 58.971 46.022 61.052 45.625 61.313 L 45.608 61.199 C 45.773 60.93 48.359 59.011 48.813 58.584 Z" fill="currentColor" fill-rule="nonzero"></path>
  <path d="M 49.734 56.873 L 49.827 56.95 C 49.728 57.147 47.549 58.862 47.17 59.218 L 47.078 59.198 L 47.092 59.103 C 47.386 58.75 49.315 57.183 49.734 56.873 Z" fill="currentColor" fill-rule="nonzero"></path>
  <path d="M 42.388 62.534 C 42.448 62.521 42.416 62.521 42.482 62.557 L 42.547 62.52 L 42.595 62.6 C 42.341 62.78 41.272 63.034 40.94 63.116 L 40.75 63.075 L 40.707 62.973 C 40.893 62.782 41.989 62.64 42.388 62.534 Z" fill="currentColor" fill-rule="nonzero"></path>
  <path d="M 55.267 55.026 L 55.321 55.09 C 55.299 55.405 54.463 56.794 54.259 57.199 L 54.192 57.129 C 54.149 56.844 55.056 55.404 55.267 55.026 Z" fill="currentColor" fill-rule="nonzero"></path>
  <path d="M 55.136 56.261 L 55.201 56.323 C 55.2 56.634 54.409 57.824 54.2 58.143 L 54.169 58.111 C 54.114 57.841 54.947 56.571 55.136 56.261 Z" fill="currentColor" fill-rule="nonzero"></path>
  <path d="M 24.95 40.28 C 25.584 40.284 25.849 40.855 25.858 41.421 C 25.883 43.022 25.448 46.482 23.34 46.643 C 21.239 45.857 23.332 42.63 24.06 41.536 C 24.329 41.132 24.612 40.625 24.95 40.28 Z" fill="currentColor" fill-rule="nonzero"></path>
  <path d="M 31.652 44.951 C 31.901 44.93 32.135 44.908 32.35 45.034 C 32.547 45.244 32.625 45.688 32.614 45.964 C 32.563 47.208 32.753 51.223 30.948 51.255 C 29.583 50.417 29.921 49.161 30.233 47.818 C 30.422 47.005 31.078 45.555 31.652 44.951 Z" fill="currentColor" fill-rule="nonzero"></path>
  <path d="M 37.614 41.465 C 38.924 42.551 39.319 44.827 38.999 46.426 C 38.905 46.892 38.662 47.188 38.325 47.502 C 36.742 47.968 36.859 45.401 36.935 44.474 C 37.023 43.39 36.807 42.331 37.614 41.465 Z" fill="currentColor" fill-rule="nonzero"></path>
  <path d="M 18.164 36.782 C 18.436 36.929 18.574 37.244 18.718 37.511 C 18.371 38.931 17.58 41.863 15.77 41.94 C 14.018 41.223 16.021 38.66 16.868 37.979 C 17.313 37.62 17.677 37.162 18.164 36.782 Z" fill="currentColor" fill-rule="nonzero"></path>
  <path d="M 9.714 12.666 C 10.082 12.703 10.293 13.011 10.538 13.282 C 9.958 14.579 9.185 16.469 7.431 16.277 L 7.376 16.256 C 4.693 15.225 8.658 13.092 9.714 12.666 Z" fill="currentColor" fill-rule="nonzero"></path>
  <path d="M 13.928 30.318 C 14.721 30.424 14.571 31.033 14.289 31.57 C 13.754 32.59 12.808 34.208 11.586 34.416 C 10.97 34.278 10.656 33.684 10.926 33.117 C 11.402 32.114 12.939 30.754 13.928 30.318 Z" fill="currentColor" fill-rule="nonzero"></path>
  <path d="M 23.56 25.429 C 23.806 25.441 24.113 25.781 24.299 25.957 C 23.655 27.282 23.716 29.198 21.824 29.474 C 21.379 29.376 21.03 28.945 21.116 28.482 C 21.371 27.095 22.504 26.231 23.56 25.429 Z" fill="currentColor" fill-rule="nonzero"></path>
  <path d="M 9.642 20.936 C 11.537 20.797 9.259 23.876 7.778 24.188 C 6.993 24.079 6.893 23.491 7.157 22.83 C 7.572 21.792 8.682 21.345 9.642 20.936 Z" fill="currentColor" fill-rule="nonzero"></path>
  <path d="M 41.656 29.827 C 42.014 29.909 42.42 30.333 42.61 30.634 C 43.342 31.799 43.594 33.034 42.812 34.257 C 41.744 34.941 41.547 32.687 41.466 32.092 C 41.362 31.325 41.071 30.439 41.656 29.827 Z" fill="currentColor" fill-rule="nonzero"></path>
  <path d="M 18.305 19.549 C 19.34 19.517 18.206 21.348 17.95 21.71 C 17.432 22.445 16.821 23.1 15.895 23.267 C 14.054 22.269 17.491 20.097 18.305 19.549 Z" fill="currentColor" fill-rule="nonzero"></path>
  <path d="M 32.715 31.017 C 33.621 31.586 33.807 34.747 32.668 35.372 C 32.099 35.309 31.872 35.096 31.835 34.514 C 31.781 33.659 32.201 31.658 32.715 31.017 Z" fill="currentColor" fill-rule="nonzero"></path>
  <path d="M 49.07 37.007 C 50.119 37.055 52.206 39.231 50.977 40.504 C 50.855 40.598 50.822 40.601 50.672 40.649 C 49.876 40.583 49.143 38.122 48.905 37.441 C 48.846 37.271 48.979 37.129 49.07 37.007 Z" fill="currentColor" fill-rule="nonzero"></path>
  <path d="M 44.07 40.568 C 45.009 40.885 45.373 42.58 45.359 43.468 C 45.353 43.857 45.229 44.087 45.026 44.406 C 43.521 45.072 43.741 41.835 43.795 41.101 C 43.814 40.846 43.891 40.746 44.07 40.568 Z" fill="currentColor" fill-rule="nonzero"></path>
</svg>