<svg xmlns="http://www.w3.org/2000/svg" width="49.668" height="48" viewBox="0 0 49.668 48" fill="none">
  <path d="M 29.089 0.004 C 29.612 0.011 30.72 0.029 31.557 0.199 C 33.647 0.623 36.201 1.496 38.245 2.697 L 38.453 2.824 C 38.93 3.121 39.346 3.435 39.614 3.641 C 40.016 3.949 40.145 4.056 40.321 4.181 L 40.788 4.521 C 41.911 5.358 43.247 6.515 44.328 8.194 C 46.334 11.312 48.55 15.541 49.455 19.795 C 49.706 20.975 49.678 22.52 49.65 23.363 C 49.618 24.344 49.534 25.568 49.384 26.403 C 49.151 27.698 48.824 29.704 48.285 31.472 C 48.097 32.091 47.773 32.805 47.619 33.144 L 47.11 34.236 C 46.092 36.431 44.314 40.341 40.924 42.775 L 40.925 42.776 C 39.521 43.784 37.961 44.464 37.007 44.891 C 33.981 46.244 30.599 47.356 27.121 47.864 C 26.287 47.986 25.157 48.006 24.326 47.999 C 23.605 47.992 22.598 47.96 21.772 47.843 C 21.351 47.803 20.999 47.733 20.885 47.711 C 20.597 47.655 20.323 47.593 20.18 47.56 L 20.143 47.552 L 20.106 47.543 C 17.048 46.792 13.641 45.495 10.733 43.565 C 8.149 41.85 5.583 38.887 4.119 36.913 L 3.902 36.621 L 3.729 36.3 C 3.632 36.119 3.519 35.921 3.365 35.651 C 3.222 35.4 3.045 35.088 2.87 34.764 C 2.536 34.146 2.083 33.253 1.77 32.242 L 1.533 31.475 C 0.927 29.508 0.011 26.355 0 23.622 C -0.012 20.575 0.609 16.858 2.716 13.737 C 5.516 9.586 9.308 8.411 12.415 7.686 L 12.518 7.662 L 12.62 7.643 C 13.771 7.426 15.076 6.905 16.286 6.19 C 16.307 6.17 16.487 6.018 16.876 5.557 C 17.119 5.27 17.326 5.007 17.643 4.616 C 17.923 4.272 18.285 3.833 18.681 3.411 L 18.936 3.15 C 21.544 0.576 24.996 0.058 27.229 0.021 C 27.656 0.005 28.382 -0.006 29.089 0.004 Z" fill="currentColor" fill-rule="nonzero"></path>
</svg>