<svg xmlns="http://www.w3.org/2000/svg" width="61.000" height="54.900" viewBox="0 0 61.000 54.900" fill="none">
  <path d="M 23.435 0.011 C 23.804 0.027 23.747 0.029 23.865 0.031 L 23.888 0.031 L 24.058 0.028 C 24.169 0.025 24.396 0.019 24.673 0.027 L 24.963 0.04 L 25.357 0.071 C 26.269 0.153 27.181 0.307 27.641 0.374 L 30.559 0.767 C 33.307 1.132 36.074 1.612 39.093 2.728 C 40.075 3.092 42.47 3.82 44.312 4.763 C 45.602 5.424 47.045 6.196 48.453 7.119 C 51.883 9.177 54.546 11.957 56.679 14.593 L 56.997 15 C 58.39 16.84 59.231 18.787 59.804 20.62 C 59.854 20.711 59.911 20.816 59.967 20.929 C 60.042 21.082 60.145 21.303 60.243 21.574 C 60.326 21.802 60.433 22.14 60.505 22.558 L 60.534 22.742 L 60.534 22.744 C 60.659 23.642 61.002 25.549 61 27.296 L 61 27.299 C 60.998 28.062 60.873 28.691 60.776 29.092 C 60.767 29.131 60.754 29.17 60.745 29.207 C 60.754 29.365 60.758 29.497 60.758 29.588 C 60.757 29.829 60.743 30.036 60.735 30.133 C 60.733 30.166 60.729 30.203 60.726 30.237 L 60.726 30.273 L 60.709 30.465 C 60.459 33.468 59.214 35.701 58.483 37.105 C 57.437 39.113 56.178 40.609 55.075 41.821 L 54.038 42.947 C 50.67 46.632 46.676 49.451 41.935 51.298 C 41.221 51.577 39.626 52.273 38.187 52.709 C 36.358 53.331 33.799 54.128 31.477 54.542 L 31.012 54.62 C 24.148 55.702 16.632 53.558 11.264 49.713 C 6.048 45.977 3.385 41.081 1.645 35.874 C 1.08 34.184 0.69 32.919 0.353 30.85 C -0.657 24.636 0.592 18.501 2.922 13.212 L 3.062 12.913 C 3.106 12.823 3.147 12.745 3.181 12.682 C 3.25 12.552 3.315 12.435 3.359 12.359 C 3.422 12.249 3.422 12.25 3.456 12.189 C 3.469 12.167 3.472 12.161 3.469 12.168 C 4.363 10.417 5.397 8.74 6.562 7.155 C 7.852 5.39 9.051 4.369 10.832 3.334 L 10.836 3.332 C 13.258 1.927 15.909 0.959 18.667 0.47 C 19.345 0.348 20.168 0.215 21.063 0.148 C 21.489 0.115 21.691 0.097 21.838 0.074 L 22.04 0.042 L 22.246 0.026 C 22.749 -0.013 23.181 0.001 23.435 0.011 Z" fill="currentColor" fill-rule="nonzero"></path>
</svg>