<svg xmlns="http://www.w3.org/2000/svg" width="39.706" height="37.818" viewBox="0 0 39.706 37.818" fill="none">
  <path d="M 22.433 0.017 C 23.103 -0.008 24.999 -0.023 25.607 0.101 C 27.275 0.44 29.297 1.147 30.782 2.02 C 31.344 2.35 31.954 2.882 32.492 3.266 C 33.525 4.002 34.475 4.795 35.187 5.901 C 37.043 8.786 38.89 12.409 39.608 15.786 C 39.807 16.722 39.668 19.489 39.505 20.392 C 39.246 21.835 38.976 23.466 38.549 24.868 C 38.407 25.338 37.86 26.467 37.629 26.964 C 36.529 29.337 35.234 31.973 33.082 33.519 C 32.156 34.183 31.068 34.672 30.03 35.136 C 27.316 36.349 24.373 37.304 21.436 37.733 C 20.567 37.86 18.205 37.844 17.357 37.692 C 17.116 37.688 16.56 37.564 16.288 37.501 C 13.628 36.848 10.782 35.742 8.465 34.204 C 6.602 32.967 4.45 30.556 3.108 28.747 C 2.587 27.782 1.863 26.666 1.539 25.617 C 0.894 23.529 0.009 20.688 0 18.509 C -0.01 16.087 0.5 13.514 1.835 11.536 C 3.538 9.012 5.755 8.209 8.544 7.558 C 10.37 7.214 12.223 6.444 13.835 5.488 C 15.161 4.7 16.241 2.966 17.292 1.848 C 18.59 0.467 20.621 0.03 22.433 0.017 Z" fill="currentColor" fill-rule="nonzero"></path>
</svg>