<svg xmlns="http://www.w3.org/2000/svg" width="77.618" height="80.810" viewBox="0 0 77.618 80.810" fill="none">
  <path d="M 8.374 0.346 C 11.022 -0.403 13.317 0.205 14.743 0.842 C 15.745 1.29 16.566 1.855 17.198 2.366 C 17.243 2.393 17.292 2.42 17.341 2.449 C 17.619 2.615 18.244 2.992 18.906 3.544 C 19.094 3.7 19.327 3.907 19.585 4.166 C 19.865 4.298 20.115 4.423 20.327 4.534 C 20.842 4.804 21.319 5.08 21.631 5.26 C 21.807 5.362 21.922 5.429 22.032 5.492 C 22.082 5.52 22.12 5.541 22.147 5.556 C 22.167 5.567 22.177 5.573 22.18 5.575 C 24.531 6.81 27.526 8.39 30.296 10.402 C 30.347 10.439 30.462 10.516 30.78 10.713 C 30.899 10.786 31.092 10.904 31.316 11.043 L 32.036 11.503 L 32.276 11.667 C 32.355 11.723 32.432 11.78 32.509 11.838 C 33.311 12.451 34.344 13.031 35.95 13.833 C 37.348 14.531 39.548 15.563 41.537 16.772 C 42.248 17.205 42.821 17.648 43.223 17.976 C 43.586 18.272 43.978 18.617 44.108 18.73 C 44.128 18.747 44.146 18.762 44.162 18.776 C 44.664 19.022 45.209 19.26 46.001 19.607 C 46.857 19.982 48.002 20.487 49.2 21.137 C 50.269 21.706 51.312 22.32 52.328 22.98 C 53.89 23.99 54.231 24.205 54.701 24.387 C 56.793 25.194 58.667 26.203 60.14 27.024 C 60.432 27.184 60.493 27.194 61.383 27.632 C 62.003 27.938 63.006 28.451 64.051 29.202 C 65.434 30.177 67.935 31.799 70 33.525 C 69.985 33.512 69.966 33.501 70.378 33.796 C 70.639 33.983 71.104 34.318 71.631 34.764 C 71.871 34.945 72.36 35.332 72.917 35.923 C 72.987 35.977 73.034 36.011 73.049 36.022 C 73.131 36.088 73.142 36.096 73.121 36.079 C 73.596 36.436 74.067 36.845 74.479 37.249 C 74.744 37.508 75.617 38.361 76.33 39.593 L 76.47 39.844 L 76.635 40.168 C 77.004 40.931 77.257 41.746 77.385 42.585 C 77.752 44.985 77.577 47.396 77.572 48.006 C 77.52 53.749 76.784 59.464 74.102 65.493 C 74.005 65.711 73.928 65.899 73.82 66.159 C 73.726 66.387 73.564 66.783 73.373 67.197 C 72.909 68.202 72.361 69.136 71.586 70.186 C 71.57 70.208 71.553 70.231 71.536 70.252 C 67.384 75.763 61.227 79.413 54.404 80.425 L 54.405 80.426 C 50.938 80.952 48.843 80.867 45.863 80.592 C 45.846 80.591 45.83 80.589 45.813 80.587 C 41.844 80.197 37.907 79.522 34.034 78.568 C 33.488 78.436 32.589 78.199 31.712 77.946 C 31.186 77.793 30.161 77.491 29.221 77.118 C 25.022 75.728 21.06 73.705 17.475 71.116 C 17.429 71.084 17.354 71.031 17.224 70.941 C 17.079 70.84 16.887 70.706 16.693 70.567 C 16.503 70.432 16.268 70.264 16.037 70.089 C 15.896 69.983 15.578 69.739 15.23 69.431 L 15.229 69.433 C 13.587 67.996 12.199 66.508 11.015 65.187 C 8.814 62.864 7.39 60.344 6.443 58.713 C 3.799 54.161 1.847 48.863 0.99 43.575 C 0.705 41.821 0.331 39.424 0.162 37.252 C -0.014 34.992 0.006 32.511 0 30.799 C 0 30.793 0 30.786 0 30.78 C -0.003 28.217 0.056 25.655 0.175 23.096 C 0.176 23.072 0.177 23.047 0.179 23.023 C 0.245 21.815 0.336 20.614 0.421 19.51 C 0.507 18.377 0.587 17.346 0.645 16.334 L 0.677 15.936 C 0.691 15.804 0.708 15.672 0.728 15.54 C 0.787 15.155 0.834 14.668 0.93 13.759 C 1.001 13.098 1.109 12.084 1.291 11.108 C 1.294 11.054 1.31 10.86 1.344 10.419 C 1.381 9.927 1.474 8.591 1.829 7.257 C 2.01 6.575 2.383 5.39 3.196 4.158 C 4.06 2.85 5.697 1.103 8.374 0.346 Z" fill="currentColor" fill-rule="nonzero"></path>
</svg>