<svg xmlns="http://www.w3.org/2000/svg" width="13.621" height="14.875" viewBox="0 0 13.621 14.875" fill="none">
  <path d="M 1.543 0 C 2.107 0.135 2.785 0.594 3.479 0.622 C 5.017 0.684 6.457 0.061 8.011 0.448 C 8.488 0.553 8.869 0.837 9.287 1.059 C 12.556 2.762 14.49 7.275 13.236 10.854 C 12.787 12.132 12.368 13.139 12.035 14.475 C 12.006 14.59 11.973 14.775 11.865 14.839 C 11.455 15.081 6.915 14.042 6.278 13.84 C 4.043 13.13 2.061 11.546 0.969 9.411 C 0.328 8.158 0.066 6.169 0.069 4.744 C 0.07 4.276 0.153 3.803 0.134 3.338 C 0.109 2.722 -0.115 2.01 0.078 1.409 C 0.287 0.758 0.979 0.298 1.543 0 Z" fill="currentColor" fill-rule="nonzero"></path>
</svg>