<svg xmlns="http://www.w3.org/2000/svg" width="41.663" height="47.991" viewBox="0 0 41.663 47.991" fill="none">
  <path d="M 24.575 9.883 C 25.306 8.929 26.829 7.408 27.286 7.044 C 27.456 6.596 28.023 4.982 27.969 4.852 C 27.667 4.36 27.385 3.833 26.615 2.559 C 25.457 1.554 23.587 0.044 22.18 0.006 C 20.736 -0.033 18.974 0.103 16.95 0.805 C 15.741 1.224 14.21 1.838 13.015 2.427 C 11.82 3.016 10.986 3.563 10.148 4.191 C 9.31 4.818 8.491 5.505 7.328 6.66 C 6.164 7.814 4.7 9.388 3.685 10.605 C 2.671 11.821 2.065 12.63 1.614 13.742 C 0.647 16.127 0.04 17.871 0.009 19.961 C -0.016 21.616 0.011 24.408 0.088 26.2 C 0.164 27.991 0.287 28.76 0.885 30.732 C 1.482 32.703 2.522 35.786 3.386 37.798 C 4.25 39.81 4.918 40.724 5.839 41.745 C 6.76 42.766 7.888 43.873 8.617 44.525 C 9.616 45.421 10.604 46.075 12.145 46.62 C 13.776 47.197 15.601 47.875 17.889 47.951 C 20.768 48.046 22.689 47.948 23.384 47.925 C 24.109 47.901 26.457 47.733 29.73 47.037 C 31.126 46.741 32 46.455 32.602 46.195 C 33.554 45.782 34.933 45.07 36.44 43.824 C 37.505 42.944 38.743 41.696 39.595 40.093 C 40.171 39.011 40.509 38.399 40.779 37.702 C 41.202 36.612 42.059 35.142 41.453 34.687 C 41.378 34.631 41.26 34.69 41.108 34.757 C 40.473 35.04 39.637 35.375 37.628 36.109 C 36.682 36.454 35.434 36.765 33.547 37.349 C 32.147 37.782 31.397 38.015 30.369 38.483 C 29.658 38.807 29.002 39.125 28.317 39.266 C 27.665 39.401 26.504 39.501 25.426 39.486 C 23.605 39.46 22.906 39.5 22.056 39.317 C 20.864 39.061 19.556 38.687 18.585 38.162 C 17.143 37.382 15.911 36.857 14.994 36.19 L 14.951 36.159 C 13.881 35.38 13.065 34.786 12.019 33.672 C 11.034 32.624 9.818 31.551 9.558 31.028 C 9.288 30.487 8.997 29.867 8.681 28.987 C 8.429 28.286 8.114 26.779 8.488 25.545 C 8.926 24.101 9.298 23.048 9.967 22.365 C 11.029 21.281 11.599 20.678 12.393 20.366 C 13.309 20.006 14.142 19.747 15.059 19.609 C 15.728 19.509 16.283 19.384 16.975 19.397 C 17.82 19.413 20.574 20.447 21.274 19.353 C 21.568 18.894 21.625 18.363 21.745 17.812 C 21.913 17.039 22.059 16.19 22.237 15.652 C 22.479 14.92 22.578 13.729 23.302 12.2 C 23.76 11.232 23.979 10.659 24.575 9.883 Z" fill="currentColor" fill-rule="nonzero"></path>
</svg>