<svg xmlns="http://www.w3.org/2000/svg" width="56.800" height="56" viewBox="0 0 56.800 56" fill="none">
  <path d="M 33.831 0 C 34.662 0 35.482 0.162 36.247 0.473 C 36.257 0.476 36.268 0.479 36.279 0.482 C 36.315 0.491 36.36 0.501 36.406 0.512 C 36.496 0.535 36.617 0.565 36.748 0.6 C 36.879 0.635 37.044 0.681 37.226 0.738 C 37.316 0.767 37.418 0.8 37.528 0.839 L 37.885 0.973 L 37.93 0.992 C 39.319 1.564 40.691 2.18 42.042 2.838 C 42.215 2.921 42.357 2.987 42.479 3.043 C 43.271 2.704 43.985 2.565 44.442 2.506 L 44.721 2.475 C 45.385 2.412 46.115 2.42 46.855 2.528 C 47.498 2.622 48.944 2.896 50.343 3.936 L 50.622 4.154 L 50.624 4.155 C 50.711 4.228 50.781 4.289 50.813 4.316 C 50.822 4.324 50.831 4.332 50.837 4.338 L 51.106 4.585 L 51.292 4.773 C 52.205 5.727 52.801 6.942 52.996 8.252 C 53.246 9.931 53.545 12.146 52.902 14.521 C 52.9 14.532 52.895 14.542 52.892 14.553 C 53.937 15.648 54.762 16.918 55.363 18.285 L 55.487 18.577 L 55.488 18.579 C 55.512 18.638 55.533 18.684 55.595 18.833 C 55.647 18.954 55.722 19.134 55.801 19.334 C 55.937 19.683 56.157 20.283 56.309 21.014 C 56.351 21.203 56.383 21.367 56.403 21.484 C 56.434 21.662 56.459 21.832 56.478 21.973 C 56.516 22.244 56.553 22.545 56.577 22.741 C 56.598 22.918 56.615 23.035 56.626 23.116 C 56.74 23.599 56.8 24.095 56.8 24.593 L 56.8 26.853 C 56.8 27.329 56.746 27.803 56.642 28.266 C 56.641 28.272 56.64 28.279 56.64 28.286 C 56.636 28.345 56.63 28.427 56.624 28.515 C 56.617 28.604 56.608 28.714 56.595 28.835 L 56.595 28.838 C 56.518 29.579 56.385 31.124 55.983 32.612 L 55.984 32.612 C 55.224 35.431 54.11 37.959 52.99 40.21 C 52.665 40.863 52.139 41.987 51.506 43.086 L 51.229 43.554 C 48.028 48.791 43.701 51.081 40.169 53.01 C 38.088 54.147 35.456 55.304 32.464 55.746 L 32.465 55.747 C 29.849 56.133 26.5 55.901 24.773 55.768 L 24.771 55.768 C 22.713 55.609 21.946 55.597 20.966 55.828 C 20.484 55.942 19.989 56 19.494 56 L 17.642 56 C 16.983 56 16.328 55.898 15.7 55.698 C 15.636 55.678 15.695 55.697 15.578 55.66 C 15.515 55.64 15.415 55.608 15.302 55.57 C 15.082 55.494 14.721 55.362 14.308 55.16 C 12.38 54.218 11.143 52.745 10.43 51.695 C 9.672 50.581 9.142 49.41 8.799 48.402 C 7.817 45.509 7.951 41.775 8.171 39.235 C 8.408 36.514 8.901 33.629 9.496 31.587 C 9.186 31.659 8.918 31.712 8.697 31.752 C 8.145 31.85 8.234 31.835 8.249 31.83 C 5.357 32.703 2.248 31.435 0.792 28.788 C -0.663 26.14 -0.07 22.835 2.217 20.86 C 2.766 20.385 3.289 20.08 3.579 19.923 C 3.742 19.724 3.986 19.351 4.451 18.487 C 4.917 17.619 5.809 15.836 7.119 14.243 C 8.359 12.713 9.761 11.561 10.779 10.754 C 11.965 9.813 12.577 9.367 13.18 8.79 C 13.354 8.623 13.537 8.405 14.106 7.727 C 14.502 7.257 15.142 6.495 15.946 5.755 L 16.224 5.509 C 16.223 5.509 16.251 5.482 16.317 5.415 C 16.372 5.359 16.639 5.084 16.813 4.912 C 17.021 4.705 17.335 4.403 17.705 4.096 C 18.039 3.819 18.619 3.37 19.387 2.988 C 21.132 2.118 22.899 1.839 23.845 1.698 C 24.959 1.531 25.275 1.496 25.514 1.441 C 25.525 1.436 25.536 1.432 25.549 1.427 C 25.717 1.36 25.941 1.266 26.181 1.161 C 26.42 1.057 26.645 0.955 26.817 0.875 C 26.884 0.844 26.933 0.819 26.964 0.804 C 27.913 0.277 28.982 0 30.07 0 L 33.831 0 Z" fill="currentColor" fill-rule="nonzero"></path>
</svg>