<svg xmlns="http://www.w3.org/2000/svg" width="44" height="43.200" viewBox="0 0 44 43.200" fill="none">
  <path d="M 11.241 43.2 C 11.066 43.144 10.883 43.092 10.718 43.011 C 9.629 42.479 8.839 41.063 8.459 39.944 C 7.44 36.941 8.372 29.838 9.283 26.834 C 9.579 25.858 10.009 24.914 10.392 23.971 C 11.013 22.442 11.582 21.014 12.3 19.519 C 12.748 18.585 13.36 17.645 14.027 16.857 C 15.615 14.981 17.531 13.46 19.417 11.914 C 19.751 11.641 20.069 11.345 20.41 11.081 C 20.703 10.854 21.016 10.654 21.309 10.426 C 22.058 9.844 22.765 9.28 23.594 8.808 C 24.552 8.263 25.657 7.925 26.691 7.565 C 30.135 6.367 31.742 6.439 34.806 8.52 C 35.447 8.955 36.18 9.575 36.869 9.918 C 37.205 10.198 37.59 10.251 37.87 10.43 C 38.219 10.684 39.202 10.965 39.631 11.121 C 41.295 11.725 42.49 12.965 43.169 14.614 C 43.338 15.026 43.566 15.501 43.65 15.949 C 43.775 16.44 43.873 17.839 44 18.193 L 44 20.453 C 43.996 20.465 43.992 20.477 43.988 20.488 C 43.866 20.88 43.871 21.368 43.829 21.778 C 43.734 22.69 43.643 23.661 43.404 24.546 C 42.8 26.788 41.889 28.892 40.86 30.96 C 40.379 31.927 39.933 32.893 39.368 33.817 C 37.155 37.437 34.284 39.037 30.702 40.993 C 28.97 41.939 27.088 42.727 25.13 43.016 C 23.339 43.28 20.703 43.129 18.865 42.987 C 16.809 42.828 15.143 42.716 13.094 43.2 L 11.241 43.2 Z" fill="currentColor" fill-rule="nonzero"></path>
  <path d="M 23.67 0 L 27.432 0 C 27.854 0.23 28.626 0.322 29.093 0.51 C 30.374 1.037 31.637 1.605 32.883 2.213 C 33.293 2.409 33.697 2.599 34.12 2.768 C 35.766 3.427 37.612 4.97 38.399 6.593 C 38.326 5.998 38.116 3.079 38.367 2.712 C 38.477 2.552 38.67 2.478 38.854 2.454 C 39.237 2.405 39.847 2.443 40.153 2.694 C 40.178 2.715 40.202 2.737 40.226 2.758 C 40.24 2.77 40.253 2.782 40.266 2.794 C 40.768 6.17 40.53 6.846 38.437 9.755 C 38.274 9.982 38.086 10.244 37.87 10.43 C 37.59 10.251 37.205 10.198 36.869 9.918 C 37.118 9.534 37.366 9.336 37.66 8.995 C 37.838 8.788 38.029 8.491 38.181 8.258 C 38.017 7.931 37.873 7.544 37.707 7.211 C 37.317 6.432 36.53 5.636 35.739 5.246 C 33.71 4.246 31.145 4.164 28.976 4.677 C 27.84 4.946 26.649 5.484 25.593 5.74 C 24.29 6.045 22.654 6.126 21.463 6.798 C 18.306 8.581 15.866 11.424 12.587 13.062 C 11.358 13.676 10.072 14.181 8.866 14.831 C 7.943 15.328 7.034 16.072 6.168 16.672 C 4.89 17.592 3.904 18.174 2.429 18.722 C 1.454 19.085 0.864 19.043 0 19.303 C 0.168 19.158 0.37 19.087 0.564 18.973 C 0.924 18.761 1.256 18.505 1.555 18.212 C 3.395 16.399 4.027 13.883 5.677 11.89 C 7.223 9.971 9.433 8.71 11.206 7.012 C 12.182 6.077 13.009 4.804 14.064 3.9 C 14.561 3.475 15.262 2.598 15.843 2.315 C 17.376 1.55 19.387 1.629 21.006 1.162 C 21.433 1.038 23.248 0.244 23.644 0.015 L 23.67 0 Z" fill="currentColor" fill-rule="nonzero"></path>
</svg>