<svg xmlns="http://www.w3.org/2000/svg" width="50.324" height="44.224" viewBox="0 0 50.324 44.224" fill="none">
  <path d="M 17.322 0.01 C 17.692 -0.019 18.052 0.023 18.423 0.03 C 18.707 0.038 18.998 0.011 19.281 0.029 C 20.046 0.078 20.8 0.213 21.557 0.322 L 24.519 0.72 C 27.121 1.066 29.432 1.483 31.903 2.397 C 33.444 2.967 35.07 3.423 36.542 4.177 C 37.816 4.829 39.091 5.517 40.283 6.306 C 42.996 7.913 45.227 10.185 47.192 12.613 C 48.336 14.027 49.021 15.625 49.515 17.35 C 49.582 17.569 49.88 17.926 49.91 18.142 C 50.084 19.387 50.326 20.697 50.324 21.952 C 50.323 22.717 49.827 23.335 50.072 24.114 C 50.104 24.217 50.054 24.568 50.053 24.685 C 49.905 26.46 49.204 27.779 48.411 29.303 C 47.411 31.222 46.21 32.423 44.761 34.009 C 41.918 37.12 38.599 39.452 34.659 40.988 C 33.52 41.432 32.354 41.964 31.172 42.305 C 29.269 42.953 26.824 43.698 24.844 44.01 C 19.514 44.85 13.393 43.158 9.034 40.036 C 5.04 37.176 2.896 33.412 1.369 28.845 C 0.846 27.28 0.555 26.321 0.284 24.655 C -0.525 19.684 0.453 14.601 2.469 10.026 C 2.567 9.804 2.744 9.53 2.861 9.303 C 3.629 7.792 4.52 6.346 5.525 4.979 C 6.35 3.848 6.978 3.308 8.176 2.612 C 10.061 1.519 12.124 0.766 14.272 0.386 C 14.888 0.276 15.503 0.179 16.127 0.132 C 16.521 0.102 16.932 0.071 17.322 0.01 Z" fill="currentColor" fill-rule="nonzero"></path>
  <path d="M 17.376 1.768 C 18.018 1.744 19.072 1.728 19.687 1.786 C 20.687 1.879 21.688 2.061 22.683 2.183 C 25.431 2.519 28.065 2.882 30.7 3.785 C 32.657 4.426 34.717 5.121 36.535 6.077 C 39.578 7.675 42.33 9.543 44.584 12.158 C 45.324 13.016 46.095 13.843 46.66 14.849 C 47.148 15.718 47.503 16.61 47.786 17.566 C 48.362 19.286 48.67 21.305 48.325 23.109 C 48.09 24.332 47.403 25.989 46.834 27.1 C 46.463 27.823 45.646 28.931 45.059 29.504 C 43.063 31.452 40.668 33.135 38.159 34.352 C 37.092 34.865 35.951 35.239 34.839 35.575 C 33.099 36.035 31.877 36.226 30.066 36.317 C 28.952 36.38 27.833 36.314 26.734 36.12 C 23.188 35.475 19.806 33.775 16.748 31.954 C 15.659 31.307 14.554 30.678 13.532 29.927 C 11.948 28.762 10.451 27.48 9.191 25.961 C 6.85 23.138 4.685 19.599 4.446 15.855 C 4.314 13.778 4.731 11.637 5.304 9.658 C 5.812 7.864 6.212 6.773 7.513 5.392 C 8.643 4.192 9.569 3.742 11.069 3.116 C 13.175 2.237 15.098 1.872 17.376 1.768 Z" fill="currentColor" fill-rule="nonzero"></path>
  <path d="M 27.336 14.61 L 27.333 14.559 C 27.28 13.719 27.064 12.853 26.971 11.975 C 26.749 9.873 26.406 7.08 27.775 5.271 C 28.397 4.45 29.595 4.595 30.248 5.265 C 31.352 6.341 31.963 7.952 32.029 9.477 C 32.168 12.193 30.643 13.902 29.789 16.287 C 31.959 14.833 34.652 11.47 37.625 11.95 C 38.344 12.066 39.001 12.497 39.411 13.106 C 39.85 13.769 40.003 14.579 39.838 15.355 C 39.684 16.085 39.279 16.665 38.653 17.072 C 36.761 18.301 32.572 17.72 30.24 17.945 C 32.076 18.474 34.304 18.592 36.219 18.703 C 37.311 18.752 38.395 18.777 39.487 18.86 C 41.745 19.031 44.688 19.241 45.943 21.447 C 46.631 22.655 45.975 23.988 44.797 24.552 C 42.59 25.608 39.375 25.094 37.157 24.393 C 36.038 24.034 34.955 23.571 33.922 23.01 C 33.782 22.997 33.713 22.946 33.577 22.893 L 33.545 22.949 C 35.632 24.494 39.707 27.685 37.691 30.753 C 36.588 32.431 34.243 31.427 33.02 30.442 C 30.798 28.651 28.641 26.014 27.181 23.556 C 27.42 24.926 27.6 26.583 27.573 27.964 C 27.518 30.717 25.618 30.615 23.774 29.231 C 21.109 27.231 21.381 25.596 22.081 22.726 C 21.556 23.203 20.952 23.663 20.404 24.122 C 19.571 24.821 18.79 25.626 17.831 26.148 C 16.773 26.715 15.468 26.413 14.945 25.291 C 14.277 23.857 15.262 22.276 16.34 21.35 L 16.37 21.324 C 15.739 21.467 15.039 21.531 14.397 21.579 C 12.602 21.714 10.785 21.576 9.223 20.603 C 7.661 19.653 6.593 17.703 7.19 15.889 C 7.515 14.904 8.423 14.272 9.427 14.092 C 11.392 13.739 13.493 14.23 15.368 14.808 C 15.521 14.855 15.664 14.906 15.819 14.942 C 13.906 13.639 9.005 10.762 8.563 8.475 C 8.481 8.048 8.547 7.551 8.796 7.187 C 9.065 6.793 9.516 6.543 9.981 6.457 C 11.705 6.14 13.979 7.408 15.344 8.359 C 17.942 10.17 20.268 12.561 22.643 14.658 C 23.368 15.298 24.094 15.987 24.878 16.554 C 24.39 15.392 23.821 14.321 23.127 13.235 C 22.213 11.804 21.288 10.554 20.434 9.054 C 19.804 7.948 18.835 5.89 20.482 5.094 C 20.991 4.879 21.686 5.016 22.159 5.228 C 24.047 6.075 25.245 7.955 25.953 9.822 C 26.385 10.962 26.601 12.246 26.971 13.414 C 27.095 13.807 27.174 14.227 27.336 14.61 Z" fill="currentColor" fill-rule="nonzero"></path>
  <path d="M 32.945 22.513 C 33.287 22.645 33.614 22.812 33.922 23.01 C 33.782 22.997 33.713 22.946 33.577 22.893 L 33.545 22.949 C 33.358 22.858 33.108 22.649 32.945 22.513 Z" fill="currentColor" fill-rule="nonzero"></path>
</svg>