<svg xmlns="http://www.w3.org/2000/svg" width="44.211" height="55.263" viewBox="0 0 44.211 55.263" fill="none">
  <path d="M 44.106 1.172 C 43.74 0.386 43.083 -0.105 42.185 0.019 C 39.77 0.751 36.538 5.193 35.398 7.342 C 33.892 10.182 32.873 13.322 31.585 16.225 L 34.282 17.255 C 34.705 16.301 35.005 15.26 35.398 14.289 C 36.262 12.049 37.3 10.167 38.748 8.227 C 39.601 7.084 40.314 6.091 41.259 4.967 C 42.119 3.944 44.766 2.588 44.106 1.172 Z" fill="currentColor" fill-rule="nonzero"></path>
  <path d="M 39.948 22.999 C 38.781 21.139 36.147 18.427 34.282 17.255 L 31.585 16.225 C 31.268 16.108 30.957 15.972 30.647 15.835 C 30.127 15.606 29.608 15.378 29.068 15.247 C 24.637 14.201 20.093 13.778 15.814 15.602 C 10.486 17.874 6.771 21.553 4.008 26.416 C 1.043 31.634 -0.805 37.316 0.346 43.289 C 0.392 43.529 0.436 43.764 0.478 43.995 L 0.478 43.995 C 0.759 45.514 1.006 46.849 1.808 48.316 C 3.118 51.3 5.508 53.193 8.667 54.336 C 8.76 54.371 8.854 54.404 8.948 54.435 C 12.457 55.396 16.573 55.365 20.17 55.112 C 22.455 54.995 25.816 54.23 27.756 53.055 C 28.192 52.79 28.672 52.508 29.169 52.215 C 30.702 51.314 32.411 50.309 33.601 49.379 C 39.953 44.415 43.035 36.728 41.982 28.931 C 41.72 26.993 40.811 24.774 39.948 22.999 Z M 34.857 24.906 C 36.245 24.83 36.777 25.029 37.705 26.137 C 39.515 28.298 40.104 35.407 37.51 37.116 C 36.786 37.527 36.132 37.836 35.283 37.565 C 34.282 37.245 33.597 36.294 33.697 35.269 C 33.747 34.76 33.808 34.26 33.868 33.761 C 33.981 32.832 34.093 31.907 34.133 30.948 C 34.149 30.558 34.125 29.951 34.098 29.268 C 34.04 27.772 33.967 25.91 34.266 25.164 C 34.403 24.998 34.556 24.968 34.757 24.927 C 34.789 24.921 34.823 24.914 34.857 24.906 Z M 35.792 39.922 C 35.415 39.641 34.823 39.521 34.355 39.494 C 32.775 39.662 32.36 40.561 31.884 41.884 C 32.332 43.259 32.703 43.552 34.271 43.568 C 35.406 43.433 36.603 42.18 36.455 41.042 C 36.397 40.598 36.159 40.195 35.792 39.922 Z" fill="currentColor" fill-rule="evenodd"></path>
  <path d="M 34.857 24.906 C 36.245 24.83 36.777 25.029 37.705 26.137 C 39.515 28.298 40.104 35.407 37.51 37.116 C 36.786 37.527 36.132 37.836 35.283 37.565 C 34.282 37.245 33.597 36.294 33.697 35.269 C 33.747 34.76 33.808 34.26 33.868 33.761 C 33.981 32.832 34.093 31.907 34.133 30.948 C 34.149 30.558 34.125 29.951 34.098 29.268 C 34.04 27.772 33.967 25.91 34.266 25.164 C 34.403 24.998 34.556 24.968 34.757 24.927 C 34.789 24.921 34.823 24.914 34.857 24.906 Z" fill="currentColor" fill-rule="nonzero"></path>
  <path d="M 34.355 39.494 C 34.823 39.521 35.415 39.641 35.792 39.922 C 36.159 40.195 36.397 40.598 36.455 41.042 C 36.603 42.18 35.406 43.433 34.271 43.568 C 32.703 43.552 32.332 43.259 31.884 41.884 C 32.36 40.561 32.775 39.662 34.355 39.494 Z" fill="currentColor" fill-rule="nonzero"></path>
</svg>