<svg xmlns="http://www.w3.org/2000/svg" width="58.950" height="70" viewBox="0 0 58.950 70" fill="none">
  <path d="M 48.548 0.088 C 50.653 -0.202 52.815 0.223 54.675 1.409 C 56.327 2.462 57.384 3.881 58.03 5.171 L 58.155 5.427 L 58.273 5.695 C 59.451 8.456 58.907 11.084 58.039 12.845 C 57.276 14.392 56.201 15.455 55.662 15.96 C 55.083 16.503 54.417 17.032 54.192 17.216 C 54.147 17.252 54.11 17.283 54.078 17.31 C 53.407 18.125 52.881 18.852 52.024 20.001 C 51.389 20.851 50.879 21.66 50.436 22.524 C 51.397 23.539 52.381 24.701 53.181 25.872 L 53.559 26.449 L 53.771 26.788 L 53.946 27.148 C 54.879 29.07 56.228 32.161 56.653 35.313 C 58.057 45.708 53.92 55.979 45.507 62.553 C 43.851 63.847 41.665 65.117 40.275 65.935 L 38.945 66.724 C 35.655 68.718 31.06 69.654 28.057 69.829 L 28.058 69.83 C 24.286 70.095 19.134 70.214 14.371 68.91 L 14.171 68.855 L 13.974 68.789 C 13.828 68.74 13.68 68.687 13.53 68.632 C 9.023 67.002 4.882 63.995 2.556 58.918 C 1.248 56.406 0.861 54.104 0.602 52.703 L 0.481 52.052 C -1.138 43.652 1.575 36.12 4.971 30.143 C 8.412 24.089 13.273 19.185 20.294 16.192 C 25.311 14.053 30.316 14.082 34.615 14.747 C 35.09 13.628 35.631 12.44 36.258 11.258 C 37.101 9.668 38.506 7.58 40.074 5.74 C 40.871 4.803 41.831 3.788 42.905 2.889 C 43.887 2.067 45.436 0.937 47.416 0.336 L 47.973 0.167 L 48.548 0.088 Z" fill="currentColor" fill-rule="nonzero"></path>
</svg>