<svg preserveAspectRatio="none" width="100%" height="100%" overflow="visible" style="display: block;" viewBox="0 0 154.429 162.569" fill="none" xmlns="http://www.w3.org/2000/svg">
<g id="Mask group">
<mask id="mask0_0_206" style="mask-type:alpha" maskUnits="userSpaceOnUse" x="0" y="0" width="155" height="163">
<g id="Subtract">
<path d="M2.97325 10.2587C3.73104 6.49355 2.68447 -4.13102 9.10945 1.7253C10.2256 2.74282 12.7622 3.57237 13.3934 4.94345C14.3848 5.80285 14.8367 6.13221 15.2319 7.42C17.8991 7.42617 22.2281 10.3915 24.7449 11.7143C30.8719 14.9347 37.1636 18.2861 42.7741 22.3621C44.4389 23.5716 46.2798 24.5808 47.9962 25.7148C55.5575 31.4881 64.7854 34.6485 72.8963 39.5807C75.4871 41.1564 77.4954 43.7583 80.2811 45.1237C84.6626 47.3642 89.0046 48.8818 93.3537 51.2392C95.5879 52.4234 97.77 53.7047 99.8901 55.0816C103.233 57.2431 106.161 59.2408 109.896 60.6832C113.784 62.1846 117.497 64.158 121.127 66.1813C123.704 67.5976 126.639 68.6705 129.05 70.4584C133.681 73.7199 138.441 76.748 142.788 80.3818C144.258 81.6104 145.801 82.4842 147.276 83.8242C148.203 84.5351 149.254 85.4619 149.511 86.6595C150.515 86.5323 150.655 86.8777 151.549 87.5321C152.21 88.0156 153.318 89.0029 153.878 89.7879L154.081 90.1122C154.665 93.9303 154.346 96.6901 154.312 100.46C154.197 113.226 152.586 124.607 147.338 136.404C145.812 139.834 145.594 141.182 143.292 144.3C136.134 153.8 125.501 160.102 113.704 161.836C107.169 162.826 103.703 162.707 97.1721 162.105C88.0587 161.21 79.022 159.661 70.1334 157.466C68.3093 157.024 63.615 155.766 61.1827 154.861L60.2928 154.496C51.4306 151.643 43.0747 147.417 35.5341 141.972C34.6018 141.305 32.1539 139.652 31.395 138.947C28.1275 136.085 25.2242 132.992 22.3476 129.778C21.0795 128.467 19.9571 127.095 18.9156 125.681C20.07 123.723 21.0277 121.695 22.0407 119.658C24.3765 114.963 26.4416 110.186 27.8147 105.096C28.3574 103.086 28.5656 100.882 28.7805 98.8112C28.8766 97.8802 28.8637 96.7726 29.1426 95.8827C29.1511 95.8561 29.1619 95.8299 29.1702 95.8034V90.6709C28.8818 89.8686 28.6553 86.6905 28.3735 85.5764C28.1812 84.5604 27.668 83.4791 27.2835 82.5445C25.7415 78.8001 23.024 75.987 19.2468 74.6147C18.2718 74.2608 16.0404 73.6208 15.2491 73.0453C15.7396 72.6211 16.1685 72.0255 16.5391 71.5104C21.2893 64.9081 21.8285 63.3716 20.6886 55.7094C20.6599 55.6818 20.6322 55.6528 20.6023 55.6266C20.547 55.5783 20.4899 55.5284 20.4333 55.4818C19.7396 54.9105 18.3543 54.8219 17.4842 54.9333C17.0668 54.9869 16.6266 55.1587 16.377 55.5231C15.8093 56.3617 16.2876 62.9819 16.4529 64.3325C14.6666 60.6479 10.4748 57.1428 6.73637 55.6473C5.77756 55.2639 4.85615 54.8333 3.92524 54.3883C2.62736 53.7551 1.32203 53.138 0.00689848 52.543C0.0532175 47.7536 0.184891 42.9651 0.407011 38.1804C0.716222 32.5533 1.2693 26.831 1.59355 21.1894C2.08678 17.9555 2.35343 13.3395 2.97325 10.2587Z" fill="#393838"/>
<path d="M0 59.3035C3.58919 59.1521 7.28041 59.7315 10.4098 61.273C12.2058 62.1579 13.9959 63.9665 14.88 65.7364C15.2576 66.4922 15.5845 67.3708 15.9562 68.1129C15.6106 68.6401 15.1771 69.3162 14.7731 69.7858C14.1061 70.5606 13.5433 71.0114 12.976 71.8829C11.4121 71.104 9.74722 69.6979 8.29198 68.7096C5.08438 66.5314 2.57916 65.3293 0.0448402 64.9258C0.00888725 63.0443 0.00416468 61.152 0 59.3035Z" fill="#393838"/>
</g>
</mask>
<g mask="url(#mask0_0_206)">
<g id="Vector">
<path d="M60.2871 154.5C51.4245 151.647 43.0689 147.419 35.528 141.973C34.5955 141.307 32.1478 139.654 31.3893 138.949C28.1218 136.088 25.2202 132.996 22.3436 129.782C18.6294 125.942 16.1162 121.617 13.4649 117.052C7.99356 107.632 3.96227 96.6372 2.22129 85.8965C1.49235 81.3994 0.679961 76.1024 0.327529 71.5702C-0.0414605 66.8251 -0.00344499 61.5314 -0.0192497 56.7353C-0.0256573 50.5486 0.114655 44.3623 0.401569 38.1821C0.710809 32.5546 1.26226 26.8325 1.5865 21.1905C2.07981 17.9561 2.34701 13.3405 2.96704 10.2598C3.72485 6.4945 2.67962 -4.12997 9.1053 1.72762C10.2215 2.74514 12.7574 3.57448 13.3887 4.94556C14.3802 5.80509 14.8314 6.13498 15.2265 7.42323C17.8938 7.42939 22.2237 10.3926 24.7403 11.7154C30.8674 14.9358 37.1568 18.2902 42.7672 22.3662C44.4325 23.576 46.2753 24.5836 47.9921 25.718C55.5534 31.4913 64.7786 34.6521 72.8895 39.5844C75.4805 41.16 77.4896 43.7592 80.2754 45.1247C84.6574 47.3655 88.9997 48.8835 93.3493 51.2412C95.5835 52.4254 97.7638 53.7079 99.8838 55.0849C103.227 57.2464 106.155 59.2434 109.89 60.6858C113.778 62.1872 117.492 64.159 121.122 66.1824C123.699 67.5987 126.634 68.6716 129.045 70.4596C133.676 73.7214 138.436 76.7506 142.784 80.3849C144.254 81.6137 145.795 82.4879 147.27 83.8283C148.198 84.5392 149.249 85.464 149.506 86.6616C150.511 86.5344 150.649 86.8808 151.545 87.5359C152.3 88.0887 153.638 89.2994 154.076 90.1143C154.659 93.9328 154.338 96.6911 154.305 100.461C154.19 113.228 152.582 124.61 147.333 136.408C145.807 139.838 145.588 141.185 143.286 144.303C136.128 153.803 125.494 160.105 113.698 161.839C107.162 162.829 103.699 162.711 97.1677 162.109C88.0539 161.214 79.017 159.663 70.128 157.468C68.0427 156.963 62.2074 155.39 60.2871 154.5Z" fill="#DA3937"/>
<path d="M60.2871 154.5C51.4245 151.647 43.0689 147.419 35.528 141.973C34.5955 141.307 32.1478 139.654 31.3893 138.949C28.1218 136.088 25.2202 132.996 22.3436 129.782C18.6294 125.942 16.1162 121.617 13.4649 117.052C7.99356 107.632 3.96227 96.6372 2.22129 85.8965C1.49235 81.3994 0.679961 76.1024 0.327529 71.5702C-0.0414605 66.8251 -0.00344499 61.5314 -0.0192497 56.7353C-0.0256573 50.5486 0.114655 44.3623 0.401569 38.1821C0.710809 32.5546 1.26226 26.8325 1.5865 21.1905C2.07981 17.9561 2.34701 13.3405 2.96704 10.2598C3.72485 6.4945 2.67962 -4.12997 9.1053 1.72762C10.2215 2.74514 12.7574 3.57448 13.3887 4.94556C14.3802 5.80509 14.8314 6.13498 15.2265 7.42323C14.7342 8.47006 13.7266 10.5202 13.5189 11.6328C12.5355 16.9008 11.5323 22.1427 11.0328 27.4932C9.05267 48.7054 8.73762 70.4182 16.1053 90.6858C20.8695 103.904 29.2711 115.521 40.3498 124.207C41.8658 125.414 44.1576 126.946 45.768 128.086C47.8834 129.582 52.0298 133.104 54.3532 133.979C57.198 135.051 61.5379 137.063 64.3435 137.879C74.282 140.769 86.145 142.016 96.1035 138.674C97.8702 138.081 100.851 136.344 102.586 135.442C104.468 134.463 107.051 133.146 108.793 131.974C114.528 128.117 119.746 123.574 124.334 118.414C125.763 116.807 127.433 114.423 128.769 112.709C132.85 107.387 136.633 101.845 140.099 96.1063C141.623 93.5291 142.862 90.816 144.136 88.1123C144.789 86.727 145.816 84.5054 147.27 83.8283C148.198 84.5392 149.249 85.464 149.506 86.6616C150.511 86.5344 150.649 86.8808 151.545 87.5359C152.3 88.0887 153.638 89.2994 154.076 90.1143C154.659 93.9328 154.338 96.6911 154.305 100.461C154.19 113.228 152.582 124.61 147.333 136.408C145.807 139.838 145.588 141.185 143.286 144.303C136.128 153.803 125.494 160.105 113.698 161.839C107.162 162.829 103.699 162.711 97.1677 162.109C88.0539 161.214 79.017 159.663 70.128 157.468C68.0427 156.963 62.2074 155.39 60.2871 154.5Z" fill="#B4C96E"/>
<path d="M13.3887 4.94556C14.3802 5.80509 14.8314 6.13498 15.2265 7.42323C14.7342 8.47006 13.7266 10.5202 13.5189 11.6328C12.5355 16.9008 11.5323 22.1427 11.0328 27.4932C9.05267 48.7054 8.73762 70.4182 16.1053 90.6858C20.8695 103.904 29.2711 115.521 40.3498 124.207C41.8658 125.414 44.1576 126.946 45.768 128.086C47.8834 129.582 52.0298 133.104 54.3532 133.979C57.198 135.051 61.5379 137.063 64.3435 137.879C74.282 140.769 86.145 142.016 96.1035 138.674C97.8702 138.081 100.851 136.344 102.586 135.442C104.468 134.463 107.051 133.146 108.793 131.974C114.528 128.117 119.746 123.574 124.334 118.414C125.763 116.807 127.433 114.423 128.769 112.709C132.85 107.387 136.633 101.845 140.099 96.1063C141.623 93.5291 142.862 90.816 144.136 88.1123C144.789 86.727 145.816 84.5054 147.27 83.8283C148.198 84.5392 149.249 85.464 149.506 86.6616C149.29 87.2061 149.206 87.8763 149.013 88.4479C148.235 90.7575 147.473 93.0796 146.666 95.3791C144.845 100.573 142.197 105.482 139.59 110.316C133.185 122.189 130.788 127.168 119.23 135.152C116.53 137.017 113.815 138.943 110.844 140.362C106.636 142.373 102.074 143.477 97.5673 144.591C87.5008 147.079 79.8129 148.695 69.3606 147.06C66.5075 146.614 63.6484 146.004 60.9216 145.047C51.4573 141.727 43.6657 135.582 36.4179 128.844C32.6384 125.33 29.0195 121.655 25.8515 117.57C22.4521 113.187 19.0656 107.599 16.6624 102.585C14.6663 98.4198 12.5174 94.0626 11.2252 89.6203C9.14839 82.4804 8.45376 76.5125 7.76279 69.189C6.76131 58.5745 6.38471 48.0053 7.14745 37.3579C7.34777 34.5618 7.73999 31.7749 8.04295 28.9882C8.47465 25.0174 8.85962 21.1209 9.68347 17.2031C10.5663 13.0048 11.9565 8.98079 13.3887 4.94556Z" fill="#FEFEFE"/>
<path d="M154.076 90.1143C154.659 93.9328 154.338 96.6911 154.305 100.461C154.19 113.228 152.582 124.61 147.333 136.408C145.807 139.838 145.588 141.185 143.286 144.303C136.128 153.803 125.494 160.105 113.698 161.839C107.162 162.829 103.699 162.711 97.1677 162.109C88.0539 161.214 79.017 159.663 70.128 157.468C68.0427 156.963 62.2074 155.39 60.2871 154.5C61.9985 154.077 67.1815 155.333 69.2138 155.446C73.6055 155.692 78.5647 156.019 82.9469 155.62C91.6418 154.83 100.493 153.066 108.876 150.643C111.573 149.864 114.197 148.837 116.725 147.645C122.149 144.172 127.271 139.967 131.931 135.515C134.498 133.063 136.718 129.102 139.199 126.446C139.787 125.668 140.56 124.741 141.011 123.887C142.955 120.207 144.611 116.408 146.472 112.672C149.995 105.596 151.584 97.6721 154.009 90.2277C154.031 90.1898 154.053 90.152 154.076 90.1143Z" fill="#69925A"/>
<path d="M132.504 141.021C132.878 140.479 133.135 140.306 133.159 139.732L132.793 139.273C132.874 138.768 135.66 135.335 136.113 135.069C138.301 133.78 142.809 123.987 143.952 123.309L144.131 123.406C144.07 124.154 143.127 125.035 142.794 125.706C141.54 128.232 140.156 130.533 138.545 132.867C137.986 133.677 136.855 135.091 136.275 135.961C136.216 136.05 136.396 136.473 136.458 136.604C136.07 137.893 133.783 140.598 132.716 141.5L132.504 141.021Z" fill="#69925A"/>
<path d="M150.091 110.627C150.616 108.557 150.683 106.439 151.592 104.538L151.744 104.603C151.701 105.599 150.888 109.621 150.592 110.707L150.655 110.952C151.1 111.283 151.222 110.804 151.748 111.043C151.777 111.411 151.123 112.201 150.873 112.847C150.145 114.727 150.15 117.723 149.185 119.287L149.078 119.162C149.153 116.091 149.713 113.6 150.091 110.627Z" fill="#69925A"/>
<path d="M113.22 155.252L113.327 155.44L113.182 155.72C109.094 157.627 100.398 159.728 95.9418 159.825L95.8154 159.659C95.9753 159.386 98.1146 159.304 98.6742 159.22C102.886 158.581 109.425 157.091 113.22 155.252Z" fill="#69925A"/>
<path d="M148.543 125.223C149.749 126.426 144.755 136.912 143.928 138.355L143.785 138.233C143.679 137.825 143.954 137.486 144.136 137.084C145.271 134.59 146.493 132.157 147.351 129.547C147.801 128.18 148.026 126.726 148.494 125.364L148.543 125.223Z" fill="#69925A"/>
<path d="M148.121 122.17C148.36 122.309 148.29 122.275 148.448 122.541C147.951 125.102 145.744 132.337 144.4 134.299L144.232 134.257C144.104 133.893 145.376 131.026 145.641 130.385C146.756 127.69 147.234 124.921 148.121 122.17Z" fill="#69925A"/>
<path d="M132.504 141.021L132.716 141.5C131.256 142.784 127.23 146.897 126.176 147.522C126.199 146.441 131.383 142.13 132.504 141.021Z" fill="#69925A"/>
<path d="M124.371 149.29L124.489 149.591C124.253 150.277 117.258 155.58 116.245 156.244L116.204 155.954C116.624 155.269 123.214 150.379 124.371 149.29Z" fill="#69925A"/>
<path d="M126.718 144.929L126.954 145.127C126.701 145.628 121.149 149.998 120.182 150.907L119.95 150.855L119.984 150.613C120.735 149.714 125.651 145.72 126.718 144.929Z" fill="#69925A"/>
<path d="M107.997 159.357C108.15 159.323 108.069 159.323 108.237 159.415L108.403 159.321L108.525 159.524C107.877 159.983 105.153 160.631 104.308 160.84L103.823 160.734L103.714 160.475C104.188 159.989 106.982 159.627 107.997 159.357Z" fill="#69925A"/>
<path d="M140.816 140.224L140.955 140.386C140.898 141.189 138.769 144.73 138.247 145.761L138.077 145.583C137.969 144.856 140.278 141.188 140.816 140.224Z" fill="#69925A"/>
<path d="M140.483 143.371L140.648 143.53C140.645 144.322 138.631 147.355 138.098 148.167L138.019 148.085C137.878 147.396 140 144.161 140.483 143.371Z" fill="#69925A"/>
<path d="M63.5601 102.646C65.1766 102.656 65.8513 104.112 65.8741 105.555C65.9384 109.633 64.8304 118.452 59.4584 118.86C54.104 116.86 59.4361 108.635 61.2924 105.847C61.9787 104.817 62.6996 103.526 63.5601 102.646Z" fill="#393838"/>
<path d="M80.6378 114.55C81.2738 114.496 81.8705 114.441 82.4179 114.761C82.9204 115.296 83.1196 116.428 83.0908 117.13C82.9602 120.3 83.4455 130.532 78.8441 130.614C75.3658 128.478 76.2289 125.277 77.0235 121.855C77.5045 119.783 79.1754 116.089 80.6378 114.55Z" fill="#393838"/>
<path d="M95.8313 105.665C99.1707 108.434 100.177 114.235 99.3604 118.31C99.1228 119.496 98.5017 120.251 97.6439 121.05C93.6109 122.239 93.9071 115.696 94.1005 113.335C94.3268 110.572 93.7748 107.873 95.8313 105.665Z" fill="#393838"/>
<path d="M46.2669 93.7328C46.9598 94.1074 47.3134 94.9091 47.6797 95.5903C46.7964 99.2092 44.7789 106.681 40.1676 106.877C35.7022 105.049 40.8072 98.5193 42.9644 96.782C44.0987 95.8685 45.0268 94.7006 46.2669 93.7328Z" fill="#393838"/>
<path d="M24.7337 32.2794C25.6722 32.3713 26.2112 33.1566 26.8332 33.849C25.3564 37.1529 23.3873 41.9702 18.9172 41.4798L18.7772 41.4275C11.9409 38.8002 22.0429 33.3626 24.7337 32.2794Z" fill="#393838"/>
<path d="M35.4727 77.2603C37.4938 77.5315 37.1108 79.0817 36.3923 80.4514C35.0292 83.0508 32.6198 87.1728 29.5051 87.7043C27.9351 87.3515 27.1357 85.8385 27.8229 84.3923C29.0368 81.8382 32.9539 78.3727 35.4727 77.2603Z" fill="#393838"/>
<path d="M60.0179 64.8024C60.6448 64.8326 61.4277 65.7003 61.9018 66.1469C60.2613 69.5245 60.415 74.4054 55.5939 75.1092C54.4604 74.8607 53.5721 73.7627 53.7893 72.583C54.4402 69.0479 57.3273 66.8464 60.0179 64.8024Z" fill="#393838"/>
<path d="M24.5499 53.3522C29.381 52.9974 23.5756 60.8433 19.8021 61.6398C17.8019 61.3631 17.5458 59.8629 18.2189 58.1779C19.2749 55.5348 22.1038 54.396 24.5499 53.3522Z" fill="#393838"/>
<path d="M106.133 76.0102C107.044 76.2178 108.079 77.2983 108.562 78.0671C110.427 81.0336 111.071 84.1809 109.079 87.2973C106.356 89.0423 105.853 83.2964 105.648 81.7822C105.382 79.8277 104.64 77.5689 106.133 76.0102Z" fill="#393838"/>
<path d="M46.6281 49.8181C49.2651 49.7365 46.3742 54.4036 45.7235 55.3256C44.4017 57.1979 42.8464 58.8673 40.4854 59.2917C35.7935 56.7499 44.552 51.2148 46.6281 49.8181Z" fill="#393838"/>
<path d="M83.3466 79.0428C85.656 80.491 86.1292 88.546 83.2277 90.1388C81.7781 89.9783 81.2003 89.4351 81.1064 87.952C80.9685 85.7736 82.0385 80.6742 83.3466 79.0428Z" fill="#393838"/>
<path d="M125.025 94.3069C127.698 94.4279 133.016 99.9723 129.885 103.218C129.573 103.457 129.489 103.464 129.108 103.588C127.078 103.419 125.21 97.147 124.605 95.4127C124.454 94.9791 124.794 94.617 125.025 94.3069Z" fill="#393838"/>
<path d="M112.285 103.379C114.676 104.189 115.604 108.509 115.569 110.771C115.553 111.762 115.237 112.348 114.719 113.162C110.886 114.858 111.446 106.609 111.583 104.738C111.631 104.089 111.827 103.833 112.285 103.379Z" fill="#393838"/>
</g>
</g>
</g>
</svg>
