<svg preserveAspectRatio="none" width="100%" height="100%" overflow="visible" style="display: block;" viewBox="0 0 160 160" fill="none" xmlns="http://www.w3.org/2000/svg">
<g id="9ec3355e8bd0f37023fdbc253101390d_ec8926a8-9fba-4c9d-93ab-06ca348209c8 1 [Vectorized]">
<path id="Vector" d="M78.1045 12.3311C85.0035 5.35711 95.2086 2.92514 104.479 6.31836C112.373 9.20812 117.753 15.1824 120.947 22.3574C123.18 27.2458 123.976 32.3612 123.669 37.5684C123.675 38.0028 123.651 38.4325 123.627 38.7627C123.588 39.2962 123.568 39.4641 123.537 39.9189C123.513 40.2771 123.506 40.53 123.512 40.708C123.512 40.7185 123.512 40.7283 123.513 40.7373C123.69 41.1794 123.851 41.2947 123.896 41.3271C123.991 41.3958 124.224 41.5215 124.802 41.6074C125.417 41.6989 126.124 41.7103 127.147 41.7197C128.061 41.7281 129.295 41.7343 130.498 41.9258C143.742 44.0334 151.932 54.6836 154.257 66.1299C156.576 77.5509 153.252 90.6709 142.5 98.1299C141.786 98.625 141.049 99.0395 140.422 99.3818C139.741 99.7531 139.233 100.017 138.712 100.324C137.858 100.828 137.438 101.193 137.213 101.489C137.162 101.721 137.18 102.107 137.494 102.926C137.708 103.482 137.965 104.014 138.318 104.78C138.596 105.383 138.935 106.139 139.199 106.957L139.308 107.312L139.513 108.05C140.483 111.685 140.659 114.529 140.573 118.174C140.404 125.327 138.352 131.027 134.609 135.649C130.932 140.191 125.831 143.433 120.009 146.099C110.947 150.247 101.467 152.394 91.8945 153.739L91.8955 153.74C90.8434 153.888 89.7802 153.992 88.8018 154.086C87.7967 154.183 86.8791 154.27 85.9922 154.39L85.9932 154.391C85.0075 154.524 83.7296 154.571 82.8711 154.622C81.8226 154.685 81.1759 154.762 80.8242 154.859L80.3525 154.99H70.8477L70.3984 154.872C69.2184 154.563 68.1413 154.599 66.0654 154.38H66.0645C60.214 153.762 53.3435 152.617 47.0576 150.153C40.7715 147.689 34.763 143.782 31.1084 137.452C27.2235 130.724 25.6528 121.408 27.501 113.703C27.5938 113.316 27.7002 112.925 27.792 112.586C27.8885 112.23 27.9727 111.918 28.0479 111.609C28.2014 110.98 28.2711 110.539 28.2783 110.21C28.2834 109.978 28.2545 109.88 28.2461 109.857C28.2713 109.906 28.2541 109.805 27.9336 109.616H27.9326C27.131 109.145 26.1736 108.813 24.6943 108.273C23.4094 107.805 21.7125 107.167 20.1748 106.101C9.70069 99.5285 5.07642 87.3714 5.96094 76.1621C6.85235 64.8673 13.418 53.8253 26.0537 50.043V50.042C27.4195 49.6332 28.6287 49.4838 29.5371 49.3828C30.5564 49.2695 30.9519 49.2294 31.2959 49.1309C31.4789 49.0784 31.5203 49.0462 31.5996 48.9609C31.6985 48.8546 31.8828 48.611 32.1221 48.1045C31.9777 47.4613 31.8119 46.793 31.6289 46.042C31.3624 44.9481 31.0707 43.7052 30.8916 42.4043C29.0759 29.2133 34.9918 17.5459 44.3027 11.7402C53.4203 6.05517 65.4082 6.23986 75.6318 15.2773C76.2899 14.4625 77.2989 13.1453 78.1045 12.3311Z" fill="#FEE3C5" stroke="white" stroke-width="7.19101"/>
<path id="Vector_2" d="M80.6791 63.2519C89.7137 62.5768 97.4531 68.0095 101.245 75.9942C103.323 80.3697 104.358 84.5918 107.061 88.7137C110.364 93.75 114.488 97.3793 119.324 100.872C127.25 107.008 128.445 119.109 122.172 126.833C117.79 132.228 111.026 134.886 104.177 133.57C101.278 133.013 98.4689 131.772 95.4726 131.351C91.3667 130.774 87.1984 130.685 83.0685 131.098C79.6157 131.351 74.5931 132.785 71.4691 134.145C67.7477 135.78 64.2695 137.725 60.0725 137.823C49.7572 138.065 41.2215 130.026 40.8581 119.691C40.5746 111.627 44.5299 107.468 49.8041 102.147C52.0341 99.8974 54.1835 95.9848 55.5396 93.124C59.1385 85.4824 58.4307 76.3877 64.7272 69.9107C69.2991 65.0088 74.2264 63.5966 80.6791 63.2519Z" fill="#EE6E58"/>
<path id="Vector_3" d="M79.4503 64.9257C82.6967 64.6217 85.7973 64.959 88.8272 66.1527C92.446 67.5782 93.8949 69.3322 95.8304 72.5875C98.4945 77.0685 99.7391 81.6433 100.794 86.6829C101.262 88.9813 101.772 91.173 102.491 93.4083C104.004 98.1105 107.664 102.032 108.665 106.892C109.65 111.677 108.491 115.832 104.328 118.627C100.422 121.249 96.0744 121.469 91.5056 121.064C88.0681 120.763 84.6515 119.95 81.1925 120.249C77.4583 120.541 74.0127 122.147 70.6369 123.602L69.326 124.161C63.3367 126.684 57.372 127.858 51.0979 125.346C47.2709 123.814 44.2919 121.118 42.6836 117.297C43.0413 113.651 44.5614 110.216 47.0195 107.5C48.4285 105.946 49.8064 104.785 51.2513 103.066C53.444 100.453 55.3051 97.5773 56.7919 94.5066C60.7711 86.4134 59.6449 78.6919 65.5153 71.6272C69.0459 67.3781 74.0187 65.3958 79.4503 64.9257Z" fill="#F4816B"/>
<path id="Vector_4" d="M57.2312 22.8986C60.079 22.484 63.5332 23.7741 65.8472 25.4099C76.8854 33.2132 75.1974 54.9931 60.3842 57.3038C41.5 58.3668 38.1742 25.7979 57.2312 22.8986Z" fill="#EE6E58"/>
<path id="Vector_5" d="M57.8049 24.5898C59.6657 24.2694 63.07 25.5287 64.5996 26.6295C66.9049 28.2657 69.0407 30.5867 69.5133 33.4806C70.7903 41.2993 66.8253 50.1799 58.477 51.7239C56.6785 51.8201 50.5091 51.5321 49.3262 49.9735C43.1951 41.895 46.0591 25.5386 57.8049 24.5898Z" fill="#F4816B"/>
<path id="Vector_6" d="M54.7001 28.7129C55.1828 28.6903 55.3639 28.8671 55.6302 29.1933C55.7112 30.1143 53.0652 32.4111 52.6131 33.6967C51.7208 36.2337 52.8402 38.4999 52.2897 40.9685C52.1802 41.4595 51.3857 41.7142 50.9676 41.8424C50.2785 41.6711 49.7734 41.471 49.6035 40.6984C48.6458 36.3424 49.8591 30.2017 54.7001 28.7129Z" fill="#FED1C7"/>
<path id="Vector_7" d="M93.6943 19.9726C112.092 18.5139 116.285 48.977 99.1785 53.8499C98.7843 53.9622 98.1695 54.0221 97.7495 54.0747C89.1862 55.2147 83.0588 47.9899 81.7926 40.14C80.4172 31.613 84.3915 21.5639 93.6943 19.9726Z" fill="#EE6E58"/>
<path id="Vector_8" d="M94.3685 21.6626C94.3769 21.6606 94.3852 21.6586 94.3936 21.6566C99.7871 21.0603 105.637 25.3934 106.568 30.7524C107.67 37.0972 104.907 44.3939 99.0862 47.5361C97.9482 48.1505 96.8212 48.4204 95.5565 48.6366C95.2111 48.6852 94.8645 48.7247 94.5171 48.7548C92.7383 48.9016 87.4925 48.3174 86.3823 46.9588C80.0574 39.2187 83.485 22.4863 94.3685 21.6626Z" fill="#F4816B"/>
<path id="Vector_9" d="M91.7155 25.6489C92.1863 25.5909 92.408 25.8466 92.6621 26.163C92.7158 27.1642 90.279 29.2393 89.6685 30.8391C88.5242 33.8382 91.2144 37.4007 88.0884 38.9806C87.656 38.7971 87.1948 38.5094 86.784 38.2691C86.6126 37.5616 86.6207 36.9191 86.5508 36.2061C86.1361 31.9809 87.3035 27.3428 91.7155 25.6489Z" fill="#FED1C7"/>
<path id="Vector_10" d="M124.093 55.5658C126.771 55.0087 130.242 56.1455 132.445 57.6545C142.226 64.3541 142.921 81.2578 132.735 87.9176C131.158 88.9483 129.479 89.3472 127.659 89.6968L127.591 89.7062C119.113 90.8464 112.768 82.6799 111.843 75.0273C110.82 66.5634 114.846 56.7565 124.093 55.5658Z" fill="#EE6E58"/>
<path id="Vector_11" d="M123.956 57.2302C128.599 56.3399 135.235 60.5144 136.363 65.024C138.353 72.9863 134.545 81.8202 126.209 84.1245C123.297 84.8284 119.043 83.9855 116.371 82.682C115.086 80.7377 113.922 77.713 113.543 75.3996C112.359 68.1621 115.724 58.5046 123.956 57.2302Z" fill="#F4816B"/>
<path id="Vector_12" d="M121.64 61.2039C122.272 61.1934 122.459 61.2865 122.776 61.7881C122.846 62.7445 120.226 64.8621 119.803 66.0892C118.918 68.6608 120.007 71.156 119.342 73.6279C119.225 74.0616 118.511 74.271 118.137 74.3877C117.645 74.3151 117.168 74.2587 116.947 73.7334C116.14 71.8124 116.339 69.1119 116.872 67.1579C117.754 63.9246 118.786 62.8198 121.64 61.2039Z" fill="#FED1C7"/>
<path id="Vector_13" d="M32.8818 62.8106C36.6327 62.3943 39.3336 63.2814 42.3995 65.4836C52.7814 72.941 50.9182 94.9586 36.8053 96.5902C22.194 98.1128 16.2213 78.1748 24.1263 68.0704C26.4014 65.1623 29.1709 63.2875 32.8818 62.8106Z" fill="#EE6E58"/>
<path id="Vector_14" d="M34.1272 64.375C39.4136 64.0595 44.9908 68.5708 45.711 74.0019C46.6637 81.1878 42.6012 90.2024 34.5679 91.0894C32.8095 91.209 26.7119 91.1473 25.5067 89.5624C19.2783 81.3719 22.1283 65.1398 34.1272 64.375Z" fill="#F4816B"/>
<path id="Vector_15" d="M30.7563 68.3281C31.3556 68.4755 31.1587 68.3538 31.6133 68.7806C31.8967 70.1144 29.3583 71.8086 28.7621 73.3595C27.6923 76.1422 30.2975 80.4295 27.0526 81.5324C26.5168 81.3097 25.8696 80.9598 25.7145 80.3741C24.4853 75.7325 26.2709 70.2612 30.7563 68.3281Z" fill="#FED1C7"/>
</g>
</svg>
