<svg xmlns="http://www.w3.org/2000/svg" width="84.123" height="77.838" viewBox="0 0 84.123 77.838" fill="none">
  <path d="M 67.794 40.619 C 70.108 42.562 81.67 53.157 83.017 49.477 C 84.364 45.797 78.842 36.943 70.487 32.268 C 70.378 33.62 68.646 38.399 67.794 40.619 Z" fill="currentColor" fill-rule="nonzero"></path>
  <path d="M 47.652 70.355 C 52.363 63.675 53.677 50.721 40.753 47.888 C 27.829 45.056 18.848 61.485 29.91 71.889 C 29.91 77.512 46.443 77.512 54.55 77.512 L 54.552 77.512 C 62.658 77.512 62.001 69.37 47.652 70.355 Z" fill="currentColor" fill-rule="nonzero"></path>
  <path d="M 76.018 75.391 C 81.274 75.938 84.123 75.172 84.123 72.872 C 84.123 70.572 77.877 69.914 74.92 68.6 C 77 65.314 79.852 60.605 79.413 55.895 C 78.973 51.186 76.891 48.471 71.717 48.471 L 62.434 72.543 C 62.483 72.543 70.762 74.843 76.018 75.391 Z" fill="currentColor" fill-rule="nonzero"></path>
  <path d="M 20.709 53.378 C 19.538 51.782 18.847 49.813 18.847 47.682 C 18.847 42.359 23.162 38.044 28.485 38.044 C 26.221 44.77 24.682 48.281 20.709 53.378 Z" fill="currentColor" fill-rule="evenodd"></path>
  <path d="M 38.123 47.682 C 38.123 53.005 33.808 57.32 28.485 57.32 C 25.293 57.32 22.463 55.768 20.709 53.378 C 24.682 48.281 26.221 44.77 28.485 38.044 C 33.808 38.044 38.123 42.359 38.123 47.682 Z" fill="currentColor" fill-rule="nonzero"></path>
  <path d="M 58.086 4.045 C 44.977 -0.061 30.671 -0.393 21.252 0.264 C 11.832 0.922 10.985 4.8 15.009 7.055 C 19.033 9.31 27.056 10.235 27.056 10.235 C 25.332 11.097 3.29 18.774 0.552 25.565 C -2.17 32.313 5.818 30.083 10.539 28.766 L 10.628 28.741 C 15.337 27.427 27.056 20.855 35.709 17.241 C 33.639 28.851 31.219 36.517 28.919 43.965 C 26.618 51.412 23.88 59.517 26.18 66.965 C 28.48 74.413 47.976 79.56 63.09 73.098 C 78.204 66.636 72.62 38.16 69.99 28.741 C 67.361 19.322 71.196 8.15 58.086 4.045 Z" fill="currentColor" fill-rule="nonzero"></path>
  <path d="M 73.028 46.255 C 72.846 46.267 72.709 46.423 72.721 46.604 C 73.08 52.01 72.853 57.623 71.421 62.355 C 69.991 67.082 67.37 70.899 62.958 72.785 C 62.791 72.857 62.714 73.05 62.785 73.217 C 62.856 73.383 63.049 73.461 63.216 73.389 C 67.864 71.402 70.584 67.39 72.05 62.545 C 73.515 57.705 73.738 52.003 73.377 46.561 C 73.365 46.38 73.209 46.242 73.028 46.255 Z" fill="currentColor" fill-rule="evenodd"></path>
  <path d="M 58.491 10.571 C 58.349 10.457 58.143 10.48 58.029 10.621 C 57.404 11.4 56.997 11.816 56.167 11.877 C 55.574 11.921 55.035 11.708 54.633 11.468 C 54.434 11.349 54.276 11.227 54.169 11.137 C 54.116 11.092 54.078 11.055 54.055 11.033 C 54.051 11.029 54.048 11.026 54.046 11.024 C 53.986 10.943 53.89 10.89 53.782 10.89 C 53.741 10.89 53.672 10.898 53.602 10.943 C 53.526 10.993 53.483 11.065 53.464 11.133 C 53.436 11.235 53.467 11.318 53.472 11.331 C 53.472 11.332 53.473 11.332 53.473 11.332 C 53.488 11.374 53.509 11.403 53.512 11.409 C 53.512 11.409 53.512 11.408 53.512 11.409 C 53.524 11.426 53.537 11.441 53.543 11.447 C 53.556 11.463 53.573 11.481 53.591 11.498 C 53.627 11.535 53.679 11.582 53.744 11.637 C 53.873 11.748 54.061 11.892 54.296 12.032 C 54.692 12.268 55.238 12.505 55.868 12.536 C 55.877 12.822 55.894 13.149 55.912 13.487 C 55.914 13.526 55.916 13.566 55.918 13.606 C 55.944 14.104 55.969 14.622 55.972 15.086 C 55.824 15.357 55.469 15.67 54.991 15.824 C 54.496 15.983 53.897 15.962 53.314 15.55 C 53.165 15.446 52.96 15.481 52.856 15.63 C 52.751 15.778 52.787 15.983 52.935 16.088 C 53.705 16.63 54.523 16.665 55.192 16.449 C 55.711 16.283 56.158 15.96 56.429 15.589 C 56.932 15.833 57.474 16.083 58.028 16.141 C 58.728 16.214 59.418 15.985 60.118 15.251 C 60.244 15.12 60.239 14.912 60.107 14.787 C 59.976 14.661 59.768 14.666 59.643 14.798 C 59.063 15.406 58.566 15.536 58.097 15.487 C 57.634 15.439 57.173 15.219 56.628 14.955 C 56.622 14.507 56.598 14.024 56.574 13.571 C 56.572 13.534 56.57 13.496 56.568 13.459 C 56.55 13.105 56.532 12.775 56.524 12.494 C 57.453 12.328 57.968 11.747 58.541 11.033 C 58.655 10.891 58.632 10.684 58.491 10.571 Z" fill="currentColor" fill-rule="evenodd"></path>
  <path d="M 46.226 11.321 C 46.226 12.289 46.618 13.073 47.102 13.073 C 47.586 13.073 47.978 12.289 47.978 11.321 C 47.978 10.353 47.586 9.569 47.102 9.569 C 46.618 9.569 46.226 10.353 46.226 11.321 Z" fill="currentColor" fill-rule="nonzero"></path>
  <path d="M 62.68 11.037 C 62.761 11.923 63.218 12.604 63.7 12.56 C 64.182 12.516 64.506 11.763 64.425 10.877 C 64.344 9.992 63.888 9.31 63.406 9.355 C 62.924 9.399 62.599 10.152 62.68 11.037 Z" fill="currentColor" fill-rule="nonzero"></path>
  <path d="M 49.358 34.788 C 49.252 34.935 49.286 35.14 49.433 35.246 C 53.277 38.008 56.312 41.719 58.166 45.17 C 59.092 46.895 59.719 48.545 60.007 49.969 C 60.297 51.402 60.235 52.561 59.845 53.342 C 59.759 53.514 59.655 53.623 59.543 53.692 C 59.43 53.761 59.288 53.802 59.108 53.805 C 58.738 53.811 58.243 53.658 57.637 53.341 C 56.433 52.712 54.943 51.519 53.419 50.125 C 51.014 47.925 48.588 45.286 47.157 43.729 C 46.778 43.317 46.468 42.98 46.248 42.748 C 46.123 42.617 45.915 42.611 45.783 42.736 C 45.652 42.861 45.646 43.069 45.771 43.201 C 45.984 43.425 46.286 43.754 46.659 44.159 C 48.086 45.711 50.546 48.387 52.976 50.61 C 54.505 52.009 56.048 53.253 57.332 53.924 C 57.971 54.257 58.584 54.471 59.12 54.462 C 59.393 54.457 59.655 54.394 59.886 54.253 C 60.118 54.111 60.3 53.902 60.433 53.636 C 60.919 52.664 60.953 51.331 60.651 49.838 C 60.347 48.336 59.693 46.625 58.744 44.859 C 56.847 41.327 53.748 37.537 49.816 34.712 C 49.669 34.606 49.464 34.64 49.358 34.788 Z" fill="currentColor" fill-rule="evenodd"></path>
  <path d="M 40.43 47.815 C 40.391 47.993 40.503 48.168 40.68 48.207 C 43.858 48.903 46.136 50.216 47.704 51.877 C 49.273 53.539 50.148 55.569 50.488 57.727 C 51.171 62.057 49.696 66.88 47.381 70.163 C 47.308 70.267 47.301 70.403 47.363 70.514 C 47.425 70.624 47.545 70.689 47.672 70.68 C 51.231 70.436 53.918 70.759 55.821 71.368 C 57.732 71.98 58.809 72.864 59.225 73.707 C 59.431 74.124 59.478 74.532 59.391 74.912 C 59.304 75.294 59.076 75.669 58.692 76.006 C 57.919 76.683 56.53 77.181 54.549 77.181 C 50.492 77.181 44.354 77.181 39.233 76.481 C 36.669 76.131 34.389 75.609 32.758 74.84 C 31.117 74.067 30.236 73.097 30.236 71.886 C 30.236 71.705 30.089 71.558 29.907 71.558 C 29.726 71.558 29.579 71.705 29.579 71.886 C 29.579 73.488 30.765 74.627 32.478 75.435 C 34.2 76.247 36.561 76.78 39.144 77.132 C 44.312 77.838 50.489 77.838 54.538 77.838 L 54.549 77.838 C 56.622 77.838 58.19 77.319 59.125 76.5 C 59.595 76.088 59.909 75.597 60.032 75.059 C 60.155 74.519 60.081 73.956 59.814 73.416 C 59.286 72.347 58.015 71.38 56.021 70.742 C 54.143 70.141 51.586 69.818 48.294 69.985 C 50.471 66.613 51.813 61.909 51.138 57.625 C 50.78 55.356 49.855 53.198 48.182 51.426 C 46.509 49.654 44.106 48.285 40.821 47.565 C 40.644 47.526 40.468 47.638 40.43 47.815 Z" fill="currentColor" fill-rule="evenodd"></path>
</svg>