<svg xmlns="http://www.w3.org/2000/svg" width="111" height="111" viewBox="0 0 111 111" fill="none">
  <path d="M 47.256 5.761 C 52.207 2.301 58.793 2.301 63.744 5.761 L 63.744 5.761 C 66.51 7.694 69.868 8.594 73.23 8.303 L 73.23 8.303 C 79.248 7.782 84.951 11.075 87.509 16.547 L 87.509 16.547 C 88.938 19.604 91.396 22.062 94.453 23.491 L 94.453 23.491 C 99.925 26.049 103.218 31.752 102.697 37.77 L 102.697 37.77 C 102.406 41.132 103.306 44.49 105.239 47.256 L 105.239 47.256 C 108.699 52.207 108.699 58.793 105.239 63.744 L 105.239 63.744 C 103.306 66.51 102.406 69.868 102.697 73.23 L 102.697 73.23 C 103.218 79.248 99.925 84.951 94.453 87.509 L 94.453 87.509 C 91.396 88.938 88.938 91.396 87.509 94.453 L 87.509 94.453 C 84.951 99.925 79.248 103.218 73.23 102.697 L 73.23 102.697 C 69.868 102.406 66.51 103.306 63.744 105.239 L 63.744 105.239 C 58.793 108.699 52.207 108.699 47.256 105.239 L 47.256 105.239 C 44.49 103.306 41.132 102.406 37.77 102.697 L 37.77 102.697 C 31.752 103.218 26.049 99.925 23.491 94.453 L 23.491 94.453 C 22.062 91.396 19.604 88.938 16.547 87.509 L 16.547 87.509 C 11.075 84.951 7.782 79.248 8.303 73.23 L 8.303 73.23 C 8.594 69.868 7.694 66.51 5.761 63.744 L 5.761 63.744 C 2.301 58.793 2.301 52.207 5.761 47.256 L 5.761 47.256 C 7.694 44.49 8.594 41.132 8.303 37.77 L 8.303 37.77 C 7.782 31.752 11.075 26.049 16.547 23.491 L 16.547 23.491 C 19.604 22.062 22.062 19.604 23.491 16.547 L 23.491 16.547 C 26.049 11.075 31.752 7.782 37.77 8.303 L 37.77 8.303 C 41.132 8.594 44.49 7.694 47.256 5.761 L 47.256 5.761 Z" fill="currentColor" fill-rule="nonzero"></path>
</svg>