<svg xmlns="http://www.w3.org/2000/svg" width="16.917" height="17.936" viewBox="0 0 16.917 17.936" fill="none">
  <path d="M 7.053 0.033 C 6.46 -0.069 5.852 0.069 5.361 0.416 C 4.87 0.764 4.538 1.291 4.436 1.884 L 4.245 3.001 C 4.143 3.594 4.281 4.202 4.629 4.693 C 4.976 5.184 5.504 5.516 6.096 5.618 C 6.689 5.719 7.297 5.581 7.788 5.234 C 8.279 4.887 8.612 4.359 8.713 3.766 L 8.904 2.649 C 9.006 2.057 8.868 1.448 8.521 0.958 C 8.173 0.467 7.646 0.134 7.053 0.033 Z M 12.638 0.989 C 12.046 0.888 11.437 1.026 10.946 1.373 C 10.456 1.72 10.123 2.248 10.021 2.841 L 9.83 3.958 C 9.729 4.55 9.867 5.159 10.214 5.65 C 10.561 6.14 11.089 6.473 11.682 6.575 C 12.274 6.676 12.883 6.538 13.373 6.191 C 13.864 5.844 14.197 5.316 14.298 4.723 L 14.49 3.606 C 14.591 3.014 14.453 2.405 14.106 1.914 C 13.759 1.424 13.231 1.091 12.638 0.989 Z M 2.745 5.044 C 2.153 4.942 1.544 5.08 1.053 5.428 C 0.562 5.775 0.23 6.303 0.128 6.895 L 0.033 7.454 C -0.069 8.046 0.069 8.655 0.416 9.146 C 0.764 9.636 1.291 9.969 1.884 10.071 C 2.476 10.172 3.085 10.034 3.576 9.687 C 4.067 9.34 4.399 8.812 4.501 8.219 L 4.596 7.661 C 4.698 7.068 4.56 6.46 4.213 5.969 C 3.866 5.478 3.338 5.145 2.745 5.044 Z M 15.033 7.149 C 14.44 7.047 13.832 7.185 13.341 7.532 C 12.85 7.88 12.517 8.408 12.416 9 L 12.32 9.559 C 12.219 10.151 12.357 10.76 12.704 11.251 C 13.051 11.741 13.579 12.074 14.172 12.175 C 14.764 12.277 15.373 12.139 15.864 11.792 C 16.354 11.445 16.687 10.917 16.788 10.324 L 16.884 9.766 C 16.986 9.173 16.848 8.564 16.5 8.074 C 16.153 7.583 15.625 7.25 15.033 7.149 Z M 10.717 9.605 C 10.49 9.207 10.178 8.865 9.803 8.603 C 9.428 8.34 8.999 8.164 8.548 8.086 C 8.097 8.009 7.634 8.033 7.193 8.155 C 6.752 8.278 6.343 8.497 5.997 8.796 L 2.06 12.196 C 0.429 13.603 1.172 16.273 3.295 16.636 C 3.598 16.688 3.91 16.669 4.204 16.579 L 4.64 16.447 C 5.451 16.201 6.308 16.148 7.143 16.291 C 7.978 16.434 8.768 16.77 9.45 17.271 L 9.818 17.541 C 10.065 17.724 10.352 17.845 10.656 17.897 C 12.778 18.261 14.368 15.991 13.299 14.121 L 10.717 9.605 Z" fill="currentColor" fill-rule="nonzero"></path>
</svg>