<svg xmlns="http://www.w3.org/2000/svg" width="36" height="52" viewBox="0 0 36 52" fill="none">
  <path d="M 11.443 46.493 C 10.11 44.926 8.957 43.447 7.462 41.181 C 5.967 38.916 4.164 35.909 3.071 33.882 C 1.657 31.261 0.714 28.38 0.261 25.449 C 0.183 24.942 0.126 24.442 0.082 23.421 C -0.113 18.847 -0.233 11.798 3.071 8.25 C 3.922 7.336 4.438 6.69 5.171 6.058 C 10.797 1.21 21.777 -2.59 28.785 2.224 C 31.346 3.983 33.489 6.73 34.702 9.503 C 37.712 16.391 34.964 24.611 31.778 30.919 C 30.899 32.661 29.966 34.371 28.612 36.616 C 27.259 38.86 25.513 41.587 24.285 43.4 C 22.081 46.654 19.198 49.073 16.655 52 C 15.176 50.433 12.104 47.269 11.443 46.493 Z M 10.502 16.915 C 10.723 16.22 10.974 15.569 11.334 15.023 C 11.975 14.051 12.674 13.197 13.747 12.67 C 16.123 11.502 19.454 10.483 21.799 12.527 C 22.088 12.78 22.674 13.328 23.247 14.135 C 25.261 16.975 24.311 21.916 21.97 24.362 C 19.144 27.314 14.384 27.288 12.065 23.726 C 10.742 21.693 9.728 19.348 10.502 16.915 Z" fill="currentColor" fill-rule="evenodd"></path>
</svg>