<svg xmlns="http://www.w3.org/2000/svg" width="169.100" height="178" viewBox="0 0 169.100 178" fill="none">
  <path d="M 66.03 169.161 C 56.326 166.038 47.178 161.409 38.921 155.446 C 37.9 154.716 35.22 152.906 34.39 152.134 C 30.812 149.001 27.635 145.616 24.485 142.097 C 20.419 137.893 17.667 133.157 14.764 128.159 C 8.774 117.845 4.36 105.807 2.453 94.047 C 1.655 89.123 0.766 83.323 0.38 78.361 C -0.024 73.165 0.018 67.369 0 62.118 C -0.007 55.344 0.147 48.571 0.461 41.804 C 0.8 35.642 1.403 29.377 1.758 23.2 C 2.299 19.658 2.591 14.605 3.27 11.232 C 4.1 7.109 2.955 -4.524 9.991 1.89 C 11.213 3.004 13.99 3.912 14.681 5.413 C 15.766 6.354 16.26 6.715 16.693 8.126 C 19.613 8.133 24.354 11.377 27.11 12.825 C 33.818 16.351 40.704 20.024 46.847 24.487 C 48.671 25.812 50.688 26.915 52.568 28.157 C 60.847 34.478 70.948 37.939 79.829 43.339 C 82.665 45.065 84.865 47.91 87.915 49.406 C 92.713 51.859 97.468 53.521 102.23 56.103 C 104.676 57.399 107.064 58.803 109.385 60.311 C 113.045 62.678 116.251 64.864 120.341 66.443 C 124.598 68.087 128.664 70.246 132.638 72.462 C 135.46 74.012 138.674 75.187 141.314 77.145 C 146.384 80.716 151.596 84.033 156.357 88.012 C 157.966 89.358 159.653 90.315 161.268 91.782 C 162.284 92.561 163.435 93.573 163.716 94.885 C 164.816 94.745 164.968 95.125 165.949 95.842 C 166.776 96.447 168.24 97.773 168.72 98.665 C 169.359 102.846 169.008 105.866 168.971 109.994 C 168.844 123.973 167.084 136.435 161.337 149.353 C 159.667 153.108 159.426 154.582 156.906 157.996 C 149.068 168.399 137.426 175.299 124.51 177.197 C 117.354 178.281 113.562 178.152 106.411 177.492 C 96.432 176.512 86.538 174.815 76.805 172.411 C 74.522 171.859 68.133 170.136 66.03 169.161 Z" fill="currentColor" fill-rule="nonzero"></path>
  <path d="M 66.03 169.161 C 56.326 166.038 47.178 161.409 38.921 155.446 C 37.9 154.716 35.22 152.906 34.39 152.134 C 30.812 149.001 27.635 145.616 24.485 142.097 C 20.419 137.893 17.667 133.157 14.764 128.159 C 8.774 117.845 4.36 105.807 2.453 94.047 C 1.655 89.123 0.766 83.323 0.38 78.361 C -0.024 73.165 0.018 67.369 0 62.118 C -0.007 55.344 0.147 48.571 0.461 41.804 C 0.8 35.642 1.403 29.377 1.758 23.2 C 2.299 19.658 2.591 14.605 3.27 11.232 C 4.1 7.109 2.955 -4.524 9.991 1.89 C 11.213 3.004 13.99 3.912 14.681 5.413 C 15.766 6.354 16.26 6.715 16.693 8.126 C 16.154 9.272 15.051 11.517 14.823 12.735 C 13.747 18.503 12.648 24.242 12.101 30.101 C 9.933 53.326 9.588 77.1 17.655 99.291 C 22.871 113.764 32.07 126.483 44.201 135.993 C 45.86 137.315 48.37 138.992 50.133 140.24 C 52.449 141.879 56.989 145.734 59.533 146.693 C 62.648 147.866 67.4 150.069 70.471 150.962 C 81.353 154.127 94.342 155.492 105.246 151.833 C 107.18 151.184 110.444 149.283 112.344 148.294 C 114.404 147.222 117.232 145.78 119.14 144.497 C 125.418 140.274 131.132 135.3 136.156 129.65 C 137.72 127.891 139.548 125.281 141.011 123.404 C 145.48 117.577 149.621 111.509 153.416 105.226 C 155.085 102.404 156.442 99.433 157.837 96.473 C 158.552 94.956 159.676 92.524 161.268 91.782 C 162.284 92.561 163.435 93.573 163.716 94.885 C 164.816 94.745 164.968 95.125 165.949 95.842 C 166.776 96.447 168.24 97.773 168.72 98.665 C 169.359 102.846 169.008 105.866 168.971 109.994 C 168.844 123.973 167.084 136.435 161.337 149.353 C 159.667 153.108 159.426 154.582 156.906 157.996 C 149.068 168.399 137.426 175.299 124.51 177.197 C 117.354 178.281 113.562 178.152 106.411 177.492 C 96.432 176.512 86.538 174.815 76.805 172.411 C 74.522 171.859 68.133 170.136 66.03 169.161 Z" fill="currentColor" fill-rule="nonzero"></path>
  <path d="M 14.681 5.413 C 15.766 6.354 16.26 6.715 16.693 8.126 C 16.154 9.272 15.051 11.517 14.823 12.735 C 13.747 18.503 12.648 24.242 12.101 30.101 C 9.933 53.326 9.588 77.1 17.655 99.291 C 22.871 113.764 32.07 126.483 44.201 135.993 C 45.86 137.315 48.37 138.992 50.133 140.24 C 52.449 141.879 56.989 145.734 59.533 146.693 C 62.648 147.866 67.4 150.069 70.471 150.962 C 81.353 154.127 94.342 155.492 105.246 151.833 C 107.18 151.184 110.444 149.283 112.344 148.294 C 114.404 147.222 117.232 145.78 119.14 144.497 C 125.418 140.274 131.132 135.3 136.156 129.65 C 137.72 127.891 139.548 125.281 141.011 123.404 C 145.48 117.577 149.621 111.509 153.416 105.226 C 155.085 102.404 156.442 99.433 157.837 96.473 C 158.552 94.956 159.676 92.524 161.268 91.782 C 162.284 92.561 163.435 93.573 163.716 94.885 C 163.48 95.481 163.388 96.215 163.177 96.84 C 162.324 99.369 161.49 101.912 160.607 104.429 C 158.613 110.117 155.713 115.491 152.859 120.784 C 145.847 133.783 143.222 139.235 130.567 147.977 C 127.611 150.019 124.638 152.127 121.386 153.682 C 116.778 155.884 111.783 157.092 106.848 158.312 C 95.827 161.036 87.409 162.806 75.965 161.015 C 72.841 160.526 69.71 159.858 66.725 158.811 C 56.362 155.176 47.831 148.448 39.896 141.07 C 35.757 137.223 31.795 133.199 28.326 128.727 C 24.604 123.927 20.896 117.809 18.265 112.319 C 16.08 107.759 13.727 102.988 12.312 98.124 C 10.038 90.307 9.277 83.772 8.521 75.754 C 7.424 64.132 7.012 52.56 7.847 40.902 C 8.066 37.84 8.496 34.789 8.828 31.738 C 9.3 27.39 9.722 23.124 10.624 18.834 C 11.59 14.237 13.113 9.831 14.681 5.413 Z" fill="currentColor" fill-rule="nonzero"></path>
  <path d="M 168.72 98.665 C 169.359 102.846 169.008 105.866 168.971 109.994 C 168.844 123.973 167.084 136.435 161.337 149.353 C 159.667 153.108 159.426 154.582 156.906 157.996 C 149.068 168.399 137.426 175.299 124.51 177.197 C 117.354 178.281 113.562 178.152 106.411 177.492 C 96.432 176.512 86.538 174.815 76.805 172.411 C 74.522 171.859 68.133 170.136 66.03 169.161 C 67.904 168.699 73.579 170.073 75.804 170.197 C 80.613 170.466 86.042 170.824 90.84 170.388 C 100.361 169.523 110.052 167.591 119.23 164.939 C 122.183 164.085 125.056 162.961 127.824 161.655 C 133.763 157.853 139.371 153.249 144.473 148.375 C 147.284 145.69 149.715 141.353 152.432 138.444 C 153.075 137.593 153.921 136.578 154.415 135.643 C 156.544 131.613 158.357 127.454 160.395 123.363 C 164.252 115.616 165.992 106.94 168.646 98.789 C 168.671 98.748 168.695 98.706 168.72 98.665 Z" fill="currentColor" fill-rule="nonzero"></path>
  <path d="M 145.101 154.403 C 145.511 153.81 145.791 153.62 145.818 152.992 L 145.417 152.489 C 145.506 151.936 148.557 148.177 149.052 147.886 C 151.448 146.475 156.384 135.753 157.635 135.01 L 157.831 135.117 C 157.765 135.936 156.732 136.9 156.367 137.635 C 154.994 140.4 153.479 142.919 151.716 145.475 C 151.104 146.362 149.865 147.91 149.23 148.863 C 149.165 148.96 149.362 149.424 149.431 149.567 C 149.005 150.978 146.502 153.94 145.333 154.927 L 145.101 154.403 Z" fill="currentColor" fill-rule="nonzero"></path>
  <path d="M 164.357 121.124 C 164.932 118.858 165.006 116.539 166 114.458 L 166.167 114.529 C 166.12 115.619 165.23 120.023 164.906 121.212 L 164.974 121.48 C 165.462 121.843 165.596 121.319 166.172 121.58 C 166.203 121.983 165.487 122.848 165.213 123.555 C 164.416 125.614 164.422 128.894 163.365 130.606 L 163.248 130.469 C 163.33 127.107 163.943 124.379 164.357 121.124 Z" fill="currentColor" fill-rule="nonzero"></path>
  <path d="M 123.987 169.985 L 124.104 170.191 L 123.945 170.497 C 119.469 172.585 109.948 174.886 105.069 174.992 L 104.93 174.81 C 105.105 174.511 107.448 174.422 108.06 174.329 C 112.672 173.629 119.831 171.998 123.987 169.985 Z" fill="currentColor" fill-rule="nonzero"></path>
  <path d="M 162.662 137.106 C 163.982 138.423 158.515 149.905 157.609 151.484 L 157.452 151.35 C 157.337 150.904 157.637 150.533 157.837 150.093 C 159.08 147.362 160.417 144.698 161.357 141.84 C 161.849 140.343 162.096 138.752 162.609 137.26 L 162.662 137.106 Z" fill="currentColor" fill-rule="nonzero"></path>
  <path d="M 162.2 133.763 C 162.461 133.915 162.385 133.878 162.559 134.169 C 162.014 136.973 159.597 144.894 158.126 147.044 L 157.942 146.997 C 157.802 146.599 159.194 143.459 159.484 142.758 C 160.705 139.806 161.229 136.775 162.2 133.763 Z" fill="currentColor" fill-rule="nonzero"></path>
  <path d="M 145.101 154.403 L 145.333 154.927 C 143.734 156.333 139.326 160.837 138.173 161.521 C 138.197 160.338 143.874 155.618 145.101 154.403 Z" fill="currentColor" fill-rule="nonzero"></path>
  <path d="M 136.196 163.456 L 136.325 163.787 C 136.067 164.538 128.408 170.343 127.299 171.071 L 127.254 170.753 C 127.714 170.003 134.93 164.649 136.196 163.456 Z" fill="currentColor" fill-rule="nonzero"></path>
  <path d="M 138.766 158.682 L 139.024 158.898 C 138.748 159.447 132.668 164.232 131.61 165.227 L 131.355 165.17 L 131.393 164.905 C 132.215 163.922 137.597 159.548 138.766 158.682 Z" fill="currentColor" fill-rule="nonzero"></path>
  <path d="M 118.268 174.48 C 118.435 174.442 118.347 174.442 118.531 174.543 L 118.713 174.44 L 118.846 174.662 C 118.137 175.164 115.154 175.874 114.229 176.103 L 113.698 175.987 L 113.578 175.703 C 114.097 175.171 117.156 174.775 118.268 174.48 Z" fill="currentColor" fill-rule="nonzero"></path>
  <path d="M 154.202 153.53 L 154.354 153.707 C 154.292 154.587 151.96 158.464 151.389 159.593 L 151.203 159.398 C 151.085 158.602 153.613 154.585 154.202 153.53 Z" fill="currentColor" fill-rule="nonzero"></path>
  <path d="M 153.837 156.976 L 154.018 157.15 C 154.015 158.017 151.809 161.338 151.226 162.227 L 151.139 162.137 C 150.985 161.384 153.308 157.841 153.837 156.976 Z" fill="currentColor" fill-rule="nonzero"></path>
  <path d="M 69.614 112.386 C 71.384 112.397 72.122 113.992 72.147 115.571 C 72.218 120.037 71.005 129.693 65.123 130.139 C 59.26 127.949 65.098 118.943 67.131 115.891 C 67.882 114.763 68.672 113.349 69.614 112.386 Z" fill="currentColor" fill-rule="nonzero"></path>
  <path d="M 88.312 125.42 C 89.009 125.361 89.662 125.301 90.261 125.651 C 90.811 126.236 91.03 127.476 90.998 128.245 C 90.855 131.716 91.386 142.919 86.348 143.008 C 82.54 140.67 83.485 137.165 84.355 133.418 C 84.882 131.15 86.711 127.104 88.312 125.42 Z" fill="currentColor" fill-rule="nonzero"></path>
  <path d="M 104.948 115.692 C 108.604 118.723 109.705 125.075 108.812 129.536 C 108.552 130.835 107.871 131.662 106.932 132.537 C 102.516 133.839 102.841 126.674 103.053 124.09 C 103.3 121.064 102.696 118.11 104.948 115.692 Z" fill="currentColor" fill-rule="nonzero"></path>
  <path d="M 50.679 102.627 C 51.438 103.037 51.825 103.915 52.226 104.661 C 51.259 108.623 49.05 116.804 44.001 117.019 C 39.112 115.017 44.701 107.868 47.063 105.965 C 48.305 104.965 49.322 103.687 50.679 102.627 Z" fill="currentColor" fill-rule="nonzero"></path>
  <path d="M 27.102 35.341 C 28.13 35.442 28.72 36.302 29.401 37.06 C 27.784 40.677 25.628 45.952 20.734 45.415 L 20.581 45.357 C 13.095 42.481 24.156 36.527 27.102 35.341 Z" fill="currentColor" fill-rule="nonzero"></path>
  <path d="M 38.861 84.591 C 41.073 84.888 40.654 86.585 39.868 88.085 C 38.375 90.931 35.737 95.444 32.327 96.026 C 30.608 95.64 29.732 93.983 30.485 92.4 C 31.814 89.603 36.103 85.809 38.861 84.591 Z" fill="currentColor" fill-rule="nonzero"></path>
  <path d="M 65.735 70.951 C 66.422 70.984 67.279 71.934 67.798 72.423 C 66.002 76.121 66.17 81.465 60.892 82.236 C 59.65 81.964 58.678 80.761 58.916 79.47 C 59.628 75.599 62.789 73.189 65.735 70.951 Z" fill="currentColor" fill-rule="nonzero"></path>
  <path d="M 26.901 58.414 C 32.191 58.025 25.834 66.616 21.703 67.488 C 19.513 67.185 19.232 65.542 19.969 63.698 C 21.126 60.804 24.223 59.557 26.901 58.414 Z" fill="currentColor" fill-rule="nonzero"></path>
  <path d="M 116.227 83.222 C 117.225 83.45 118.357 84.633 118.887 85.474 C 120.929 88.722 121.634 92.168 119.452 95.581 C 116.471 97.491 115.921 91.2 115.696 89.542 C 115.405 87.402 114.593 84.929 116.227 83.222 Z" fill="currentColor" fill-rule="nonzero"></path>
  <path d="M 51.075 54.544 C 53.962 54.455 50.797 59.565 50.084 60.575 C 48.637 62.625 46.934 64.452 44.349 64.917 C 39.212 62.134 48.802 56.074 51.075 54.544 Z" fill="currentColor" fill-rule="nonzero"></path>
  <path d="M 91.278 86.543 C 93.807 88.128 94.325 96.948 91.148 98.692 C 89.561 98.516 88.928 97.921 88.825 96.297 C 88.674 93.912 89.846 88.329 91.278 86.543 Z" fill="currentColor" fill-rule="nonzero"></path>
  <path d="M 136.912 103.255 C 139.839 103.388 145.662 109.459 142.233 113.013 C 141.892 113.274 141.8 113.281 141.382 113.418 C 139.16 113.233 137.115 106.365 136.452 104.466 C 136.286 103.991 136.66 103.595 136.912 103.255 Z" fill="currentColor" fill-rule="nonzero"></path>
  <path d="M 122.963 113.189 C 125.581 114.076 126.597 118.805 126.558 121.282 C 126.541 122.367 126.195 123.009 125.628 123.9 C 121.431 125.757 122.045 116.725 122.195 114.677 C 122.247 113.966 122.461 113.686 122.963 113.189 Z" fill="currentColor" fill-rule="nonzero"></path>
</svg>