<svg xmlns="http://www.w3.org/2000/svg" width="7.503" height="13.615" viewBox="0 0 7.503 13.615" fill="none">
  <path d="M 1.956 6.812 L 7.233 12.089 C 7.413 12.269 7.5 12.478 7.494 12.717 C 7.488 12.957 7.395 13.166 7.215 13.345 C 7.035 13.525 6.826 13.615 6.587 13.615 C 6.348 13.615 6.139 13.525 5.959 13.345 L 0.431 7.835 C 0.287 7.692 0.179 7.53 0.108 7.351 C 0.036 7.171 0 6.992 0 6.812 C 0 6.633 0.036 6.453 0.108 6.274 C 0.179 6.094 0.287 5.933 0.431 5.789 L 5.959 0.261 C 6.138 0.081 6.351 -0.005 6.597 0 C 6.842 0.006 7.054 0.099 7.233 0.279 C 7.412 0.459 7.502 0.668 7.503 0.907 C 7.503 1.146 7.413 1.355 7.233 1.535 L 1.956 6.812 Z" fill="currentColor" fill-rule="nonzero"></path>
</svg>