<svg width="20" height="20" viewBox="0 0 20 20" fill="none" xmlns="http://www.w3.org/2000/svg">
<path d="M12.5 4.16667L7.5 2.5L2.84167 4.05333C2.74218 4.08655 2.65566 4.1502 2.59434 4.2353C2.53303 4.32039 2.50002 4.42262 2.5 4.5275V16.8058C2.49988 16.8851 2.51864 16.9633 2.5547 17.034C2.59077 17.1046 2.64313 17.1656 2.70744 17.212C2.77176 17.2584 2.84619 17.2889 2.92459 17.3008C3.00299 17.3128 3.08311 17.3059 3.15833 17.2808L7.5 15.8333M12.5 4.16667L16.8417 2.71917C16.9168 2.69407 16.9969 2.68721 17.0752 2.69912C17.1535 2.71104 17.2279 2.74141 17.2922 2.78772C17.3565 2.83403 17.4089 2.89495 17.445 2.96548C17.4811 3.036 17.5 3.1141 17.5 3.19333V15.4725C17.5002 15.5775 17.4672 15.6799 17.4059 15.7652C17.3446 15.8505 17.258 15.9142 17.1583 15.9475L12.5 17.5L7.5 15.8333M7.5 15.8333V2.5M12.5 17.5V4.16667" stroke="#393838" stroke-width="1.25" stroke-linecap="round" stroke-linejoin="round"></path>
</svg>